<?xml version="1.0" encoding="UTF-8" standalone="no"?>
<!DOCTYPE svg PUBLIC "-//W3C//DTD SVG 1.1//EN"
 "http://www.w3.org/Graphics/SVG/1.1/DTD/svg11.dtd">
<!-- Generated by graphviz version 2.44.0 (20200408.0750)
 -->
<!-- Title: dependency&#45;cruiser output Pages: 1 -->
<svg width="618pt" height="752pt"
 viewBox="0.00 0.00 618.04 751.69" xmlns="http://www.w3.org/2000/svg" xmlns:xlink="http://www.w3.org/1999/xlink">
<g id="graph0" class="graph" transform="scale(1 1) rotate(0) translate(4 747.69)">
<title>dependency&#45;cruiser output</title>
<polygon fill="white" stroke="transparent" points="-4,4 -4,-747.69 614.04,-747.69 614.04,4 -4,4"/>
<g id="clust1" class="cluster">
<title>cluster_client</title>
<path fill="#ffffff" stroke="black" stroke-width="2" d="M20,-20.69C20,-20.69 590.04,-20.69 590.04,-20.69 596.04,-20.69 602.04,-26.69 602.04,-32.69 602.04,-32.69 602.04,-723.69 602.04,-723.69 602.04,-729.69 596.04,-735.69 590.04,-735.69 590.04,-735.69 20,-735.69 20,-735.69 14,-735.69 8,-729.69 8,-723.69 8,-723.69 8,-32.69 8,-32.69 8,-26.69 14,-20.69 20,-20.69"/>
<text text-anchor="middle" x="305.02" y="-723.59" font-family="Helvetica,sans-Serif" font-weight="bold" font-size="9.00">client</text>
</g>
<g id="clust2" class="cluster">
<title>cluster_client/src</title>
<path fill="#ffffff" stroke="black" stroke-width="2" d="M28,-28.69C28,-28.69 582.04,-28.69 582.04,-28.69 588.04,-28.69 594.04,-34.69 594.04,-40.69 594.04,-40.69 594.04,-696.69 594.04,-696.69 594.04,-702.69 588.04,-708.69 582.04,-708.69 582.04,-708.69 28,-708.69 28,-708.69 22,-708.69 16,-702.69 16,-696.69 16,-696.69 16,-40.69 16,-40.69 16,-34.69 22,-28.69 28,-28.69"/>
<text text-anchor="middle" x="305.02" y="-696.59" font-family="Helvetica,sans-Serif" font-weight="bold" font-size="9.00">src</text>
</g>
<g id="clust3" class="cluster">
<title>cluster_client/src/components</title>
<path fill="#ffffff" stroke="black" stroke-width="2" d="M98,-149.69C98,-149.69 425.54,-149.69 425.54,-149.69 431.54,-149.69 437.54,-155.69 437.54,-161.69 437.54,-161.69 437.54,-567.69 437.54,-567.69 437.54,-573.69 431.54,-579.69 425.54,-579.69 425.54,-579.69 98,-579.69 98,-579.69 92,-579.69 86,-573.69 86,-567.69 86,-567.69 86,-161.69 86,-161.69 86,-155.69 92,-149.69 98,-149.69"/>
<text text-anchor="middle" x="261.77" y="-567.59" font-family="Helvetica,sans-Serif" font-weight="bold" font-size="9.00">components</text>
</g>
<g id="clust4" class="cluster">
<title>cluster_client/src/components/layout</title>
<path fill="#ffffff" stroke="black" stroke-width="2" d="M124.01,-468.69C124.01,-468.69 273.77,-468.69 273.77,-468.69 279.77,-468.69 285.77,-474.69 285.77,-480.69 285.77,-480.69 285.77,-540.69 285.77,-540.69 285.77,-546.69 279.77,-552.69 273.77,-552.69 273.77,-552.69 124.01,-552.69 124.01,-552.69 118.01,-552.69 112.01,-546.69 112.01,-540.69 112.01,-540.69 112.01,-480.69 112.01,-480.69 112.01,-474.69 118.01,-468.69 124.01,-468.69"/>
<text text-anchor="middle" x="198.89" y="-540.59" font-family="Helvetica,sans-Serif" font-weight="bold" font-size="9.00">layout</text>
</g>
<g id="clust5" class="cluster">
<title>cluster_client/src/components/pages</title>
<path fill="#ffffff" stroke="black" stroke-width="2" d="M106,-157.69C106,-157.69 308.53,-157.69 308.53,-157.69 314.53,-157.69 320.53,-163.69 320.53,-169.69 320.53,-169.69 320.53,-448.69 320.53,-448.69 320.53,-454.69 314.53,-460.69 308.53,-460.69 308.53,-460.69 106,-460.69 106,-460.69 100,-460.69 94,-454.69 94,-448.69 94,-448.69 94,-169.69 94,-169.69 94,-163.69 100,-157.69 106,-157.69"/>
<text text-anchor="middle" x="207.26" y="-448.59" font-family="Helvetica,sans-Serif" font-weight="bold" font-size="9.00">pages</text>
</g>
<g id="clust6" class="cluster">
<title>cluster_client/src/components/pages/home</title>
<path fill="#ffffff" stroke="black" stroke-width="2" d="M124.01,-257.69C124.01,-257.69 300.53,-257.69 300.53,-257.69 306.53,-257.69 312.53,-263.69 312.53,-269.69 312.53,-269.69 312.53,-360.69 312.53,-360.69 312.53,-366.69 306.53,-372.69 300.53,-372.69 300.53,-372.69 124.01,-372.69 124.01,-372.69 118.01,-372.69 112.01,-366.69 112.01,-360.69 112.01,-360.69 112.01,-269.69 112.01,-269.69 112.01,-263.69 118.01,-257.69 124.01,-257.69"/>
<text text-anchor="middle" x="212.27" y="-360.59" font-family="Helvetica,sans-Serif" font-weight="bold" font-size="9.00">home</text>
</g>
<g id="clust7" class="cluster">
<title>cluster_client/src/components/pages/questions</title>
<path fill="#ffffff" stroke="black" stroke-width="2" d="M124.01,-380.69C124.01,-380.69 170.01,-380.69 170.01,-380.69 176.01,-380.69 182.01,-386.69 182.01,-392.69 182.01,-392.69 182.01,-421.69 182.01,-421.69 182.01,-427.69 176.01,-433.69 170.01,-433.69 170.01,-433.69 124.01,-433.69 124.01,-433.69 118.01,-433.69 112.01,-427.69 112.01,-421.69 112.01,-421.69 112.01,-392.69 112.01,-392.69 112.01,-386.69 118.01,-380.69 124.01,-380.69"/>
<text text-anchor="middle" x="147.01" y="-421.59" font-family="Helvetica,sans-Serif" font-weight="bold" font-size="9.00">questions</text>
</g>
<g id="clust8" class="cluster">
<title>cluster_client/src/components/pages/quiz</title>
<path fill="#ffffff" stroke="black" stroke-width="2" d="M114,-165.69C114,-165.69 298.53,-165.69 298.53,-165.69 304.53,-165.69 310.53,-171.69 310.53,-177.69 310.53,-177.69 310.53,-237.69 310.53,-237.69 310.53,-243.69 304.53,-249.69 298.53,-249.69 298.53,-249.69 114,-249.69 114,-249.69 108,-249.69 102,-243.69 102,-237.69 102,-237.69 102,-177.69 102,-177.69 102,-171.69 108,-165.69 114,-165.69"/>
<text text-anchor="middle" x="206.26" y="-237.59" font-family="Helvetica,sans-Serif" font-weight="bold" font-size="9.00">quiz</text>
</g>
<g id="clust9" class="cluster">
<title>cluster_client/src/components/shared</title>
<path fill="#ffffff" stroke="black" stroke-width="2" d="M345.53,-324.69C345.53,-324.69 417.54,-324.69 417.54,-324.69 423.54,-324.69 429.54,-330.69 429.54,-336.69 429.54,-336.69 429.54,-427.69 429.54,-427.69 429.54,-433.69 423.54,-439.69 417.54,-439.69 417.54,-439.69 345.53,-439.69 345.53,-439.69 339.53,-439.69 333.53,-433.69 333.53,-427.69 333.53,-427.69 333.53,-336.69 333.53,-336.69 333.53,-330.69 339.53,-324.69 345.53,-324.69"/>
<text text-anchor="middle" x="381.53" y="-427.59" font-family="Helvetica,sans-Serif" font-weight="bold" font-size="9.00">shared</text>
</g>
<g id="clust10" class="cluster">
<title>cluster_client/src/handlers</title>
<path fill="#ffffff" stroke="black" stroke-width="2" d="M340.53,-88.69C340.53,-88.69 422.54,-88.69 422.54,-88.69 428.54,-88.69 434.54,-94.69 434.54,-100.69 434.54,-100.69 434.54,-129.69 434.54,-129.69 434.54,-135.69 428.54,-141.69 422.54,-141.69 422.54,-141.69 340.53,-141.69 340.53,-141.69 334.53,-141.69 328.53,-135.69 328.53,-129.69 328.53,-129.69 328.53,-100.69 328.53,-100.69 328.53,-94.69 334.53,-88.69 340.53,-88.69"/>
<text text-anchor="middle" x="381.53" y="-129.59" font-family="Helvetica,sans-Serif" font-weight="bold" font-size="9.00">handlers</text>
</g>
<g id="clust11" class="cluster">
<title>cluster_client/src/init</title>
<path fill="#ffffff" stroke="black" stroke-width="2" d="M457.54,-46.69C457.54,-46.69 574.04,-46.69 574.04,-46.69 580.04,-46.69 586.04,-52.69 586.04,-58.69 586.04,-58.69 586.04,-118.69 586.04,-118.69 586.04,-124.69 580.04,-130.69 574.04,-130.69 574.04,-130.69 457.54,-130.69 457.54,-130.69 451.54,-130.69 445.54,-124.69 445.54,-118.69 445.54,-118.69 445.54,-58.69 445.54,-58.69 445.54,-52.69 451.54,-46.69 457.54,-46.69"/>
<text text-anchor="middle" x="515.79" y="-118.59" font-family="Helvetica,sans-Serif" font-weight="bold" font-size="9.00">init</text>
</g>
<g id="clust12" class="cluster">
<title>cluster_client/src/logic</title>
<path fill="#ffffff" stroke="black" stroke-width="2" d="M347.28,-587.69C347.28,-587.69 504.04,-587.69 504.04,-587.69 510.04,-587.69 516.04,-593.69 516.04,-599.69 516.04,-599.69 516.04,-659.69 516.04,-659.69 516.04,-665.69 510.04,-671.69 504.04,-671.69 504.04,-671.69 347.28,-671.69 347.28,-671.69 341.28,-671.69 335.28,-665.69 335.28,-659.69 335.28,-659.69 335.28,-599.69 335.28,-599.69 335.28,-593.69 341.28,-587.69 347.28,-587.69"/>
<text text-anchor="middle" x="425.66" y="-659.59" font-family="Helvetica,sans-Serif" font-weight="bold" font-size="9.00">logic</text>
</g>
<!-- client/src/components/layout/footer.js -->
<g id="node1" class="node">
<title>client/src/components/layout/footer.js</title>
<g id="a_node1"><a xlink:href="../client/src/components/layout/footer.js" xlink:title="footer.js">
<path fill="#ffffcc" stroke="black" d="M271.57,-525.99C271.57,-525.99 229.97,-525.99 229.97,-525.99 226.87,-525.99 223.77,-522.89 223.77,-519.79 223.77,-519.79 223.77,-513.59 223.77,-513.59 223.77,-510.49 226.87,-507.39 229.97,-507.39 229.97,-507.39 271.57,-507.39 271.57,-507.39 274.67,-507.39 277.77,-510.49 277.77,-513.59 277.77,-513.59 277.77,-519.79 277.77,-519.79 277.77,-522.89 274.67,-525.99 271.57,-525.99"/>
<text text-anchor="middle" x="250.77" y="-513.99" font-family="Helvetica,sans-Serif" font-size="9.00">footer.js</text>
</a>
</g>
</g>
<!-- client/src/components/layout/navbar.js -->
<g id="node2" class="node">
<title>client/src/components/layout/navbar.js</title>
<g id="a_node2"><a xlink:href="../client/src/components/layout/navbar.js" xlink:title="navbar.js">
<path fill="#ffffcc" stroke="black" d="M271.57,-494.99C271.57,-494.99 229.97,-494.99 229.97,-494.99 226.87,-494.99 223.77,-491.89 223.77,-488.79 223.77,-488.79 223.77,-482.59 223.77,-482.59 223.77,-479.49 226.87,-476.39 229.97,-476.39 229.97,-476.39 271.57,-476.39 271.57,-476.39 274.67,-476.39 277.77,-479.49 277.77,-482.59 277.77,-482.59 277.77,-488.79 277.77,-488.79 277.77,-491.89 274.67,-494.99 271.57,-494.99"/>
<text text-anchor="middle" x="250.77" y="-482.99" font-family="Helvetica,sans-Serif" font-size="9.00">navbar.js</text>
</a>
</g>
</g>
<!-- client/src/components/layout/page.js -->
<g id="node3" class="node">
<title>client/src/components/layout/page.js</title>
<g id="a_node3"><a xlink:href="../client/src/components/layout/page.js" xlink:title="page.js">
<path fill="#ffffcc" stroke="black" d="M167.81,-494.99C167.81,-494.99 126.21,-494.99 126.21,-494.99 123.11,-494.99 120.01,-491.89 120.01,-488.79 120.01,-488.79 120.01,-482.59 120.01,-482.59 120.01,-479.49 123.11,-476.39 126.21,-476.39 126.21,-476.39 167.81,-476.39 167.81,-476.39 170.91,-476.39 174.01,-479.49 174.01,-482.59 174.01,-482.59 174.01,-488.79 174.01,-488.79 174.01,-491.89 170.91,-494.99 167.81,-494.99"/>
<text text-anchor="middle" x="147.01" y="-482.99" font-family="Helvetica,sans-Serif" font-size="9.00">page.js</text>
</a>
</g>
</g>
<!-- client/src/components/layout/page.js&#45;&gt;client/src/components/layout/footer.js -->
<g id="edge1" class="edge">
<title>client/src/components/layout/page.js&#45;&gt;client/src/components/layout/footer.js</title>
<path fill="none" stroke="#000000" stroke-width="2" stroke-opacity="0.200000" d="M174.2,-493.72C181.58,-495.98 189.61,-498.43 197.01,-500.69 203.67,-502.72 210.81,-504.88 217.61,-506.95"/>
<polygon fill="#000000" fill-opacity="0.200000" stroke="#000000" stroke-width="2" stroke-opacity="0.200000" points="217.38,-509.07 223.74,-508.81 218.6,-505.06 217.38,-509.07"/>
</g>
<!-- client/src/components/layout/page.js&#45;&gt;client/src/components/layout/navbar.js -->
<g id="edge2" class="edge">
<title>client/src/components/layout/page.js&#45;&gt;client/src/components/layout/navbar.js</title>
<path fill="none" stroke="#000000" stroke-width="2" stroke-opacity="0.200000" d="M174.21,-485.69C187.39,-485.69 203.48,-485.69 217.42,-485.69"/>
<polygon fill="#000000" fill-opacity="0.200000" stroke="#000000" stroke-width="2" stroke-opacity="0.200000" points="217.65,-487.79 223.65,-485.69 217.65,-483.59 217.65,-487.79"/>
</g>
<!-- client/src/components/pages/home/index.js -->
<g id="node4" class="node">
<title>client/src/components/pages/home/index.js</title>
<g id="a_node4"><a xlink:href="../client/src/components/pages/home/index.js" xlink:title="index.js">
<path fill="#ffffcc" stroke="black" d="M167.81,-314.99C167.81,-314.99 126.21,-314.99 126.21,-314.99 123.11,-314.99 120.01,-311.89 120.01,-308.79 120.01,-308.79 120.01,-302.59 120.01,-302.59 120.01,-299.49 123.11,-296.39 126.21,-296.39 126.21,-296.39 167.81,-296.39 167.81,-296.39 170.91,-296.39 174.01,-299.49 174.01,-302.59 174.01,-302.59 174.01,-308.79 174.01,-308.79 174.01,-311.89 170.91,-314.99 167.81,-314.99"/>
<text text-anchor="middle" x="147.01" y="-302.99" font-family="Helvetica,sans-Serif" font-size="9.00">index.js</text>
</a>
</g>
</g>
<!-- client/src/init/state.js -->
<g id="node5" class="node">
<title>client/src/init/state.js</title>
<g id="a_node5"><a xlink:href="../client/src/init/state.js" xlink:title="state.js">
<path fill="#ffffcc" stroke="black" d="M501.34,-103.99C501.34,-103.99 459.74,-103.99 459.74,-103.99 456.64,-103.99 453.54,-100.89 453.54,-97.79 453.54,-97.79 453.54,-91.59 453.54,-91.59 453.54,-88.49 456.64,-85.39 459.74,-85.39 459.74,-85.39 501.34,-85.39 501.34,-85.39 504.44,-85.39 507.54,-88.49 507.54,-91.59 507.54,-91.59 507.54,-97.79 507.54,-97.79 507.54,-100.89 504.44,-103.99 501.34,-103.99"/>
<text text-anchor="middle" x="480.54" y="-91.99" font-family="Helvetica,sans-Serif" font-size="9.00">state.js</text>
</a>
</g>
</g>
<!-- client/src/components/pages/home/index.js&#45;&gt;client/src/init/state.js -->
<g id="edge3" class="edge">
<title>client/src/components/pages/home/index.js&#45;&gt;client/src/init/state.js</title>
<path fill="none" stroke="#000000" stroke-width="2" stroke-opacity="0.200000" d="M156.37,-296.29C164.81,-286.25 177.49,-269.49 184.01,-252.69 198.63,-215.01 176.76,-197.66 197.01,-162.69 234.22,-98.44 258.34,-83.9 328.53,-59.69 374.33,-43.89 397.18,-32.89 437.54,-59.69 445.17,-64.76 439.2,-72.08 445.54,-78.69 446.61,-79.8 447.77,-80.84 448.99,-81.82"/>
<polygon fill="#000000" fill-opacity="0.200000" stroke="#000000" stroke-width="2" stroke-opacity="0.200000" points="447.87,-83.59 454,-85.27 450.25,-80.13 447.87,-83.59"/>
</g>
<!-- client/src/components/pages/home/instructions.js -->
<g id="node6" class="node">
<title>client/src/components/pages/home/instructions.js</title>
<g id="a_node6"><a xlink:href="../client/src/components/pages/home/instructions.js" xlink:title="instructions.js">
<path fill="#ffffcc" stroke="black" d="M279.57,-283.99C279.57,-283.99 221.96,-283.99 221.96,-283.99 218.86,-283.99 215.76,-280.89 215.76,-277.79 215.76,-277.79 215.76,-271.59 215.76,-271.59 215.76,-268.49 218.86,-265.39 221.96,-265.39 221.96,-265.39 279.57,-265.39 279.57,-265.39 282.67,-265.39 285.77,-268.49 285.77,-271.59 285.77,-271.59 285.77,-277.79 285.77,-277.79 285.77,-280.89 282.67,-283.99 279.57,-283.99"/>
<text text-anchor="middle" x="250.77" y="-271.99" font-family="Helvetica,sans-Serif" font-size="9.00">instructions.js</text>
</a>
</g>
</g>
<!-- client/src/components/pages/home/index.js&#45;&gt;client/src/components/pages/home/instructions.js -->
<g id="edge4" class="edge">
<title>client/src/components/pages/home/index.js&#45;&gt;client/src/components/pages/home/instructions.js</title>
<path fill="none" stroke="#000000" stroke-width="2" stroke-opacity="0.200000" d="M174.2,-297.66C181.58,-295.4 189.61,-292.94 197.01,-290.69 202.19,-289.11 207.65,-287.45 213.03,-285.82"/>
<polygon fill="#000000" fill-opacity="0.200000" stroke="#000000" stroke-width="2" stroke-opacity="0.200000" points="213.67,-287.82 218.8,-284.06 212.45,-283.8 213.67,-287.82"/>
</g>
<!-- client/src/components/pages/home/number&#45;of&#45;questions.js -->
<g id="node7" class="node">
<title>client/src/components/pages/home/number&#45;of&#45;questions.js</title>
<g id="a_node7"><a xlink:href="../client/src/components/pages/home/number-of-questions.js" xlink:title="number&#45;of&#45;questions.js">
<path fill="#ffffcc" stroke="black" d="M298.08,-314.99C298.08,-314.99 203.46,-314.99 203.46,-314.99 200.36,-314.99 197.25,-311.89 197.25,-308.79 197.25,-308.79 197.25,-302.59 197.25,-302.59 197.25,-299.49 200.36,-296.39 203.46,-296.39 203.46,-296.39 298.08,-296.39 298.08,-296.39 301.18,-296.39 304.28,-299.49 304.28,-302.59 304.28,-302.59 304.28,-308.79 304.28,-308.79 304.28,-311.89 301.18,-314.99 298.08,-314.99"/>
<text text-anchor="middle" x="250.77" y="-302.99" font-family="Helvetica,sans-Serif" font-size="9.00">number&#45;of&#45;questions.js</text>
</a>
</g>
</g>
<!-- client/src/components/pages/home/index.js&#45;&gt;client/src/components/pages/home/number&#45;of&#45;questions.js -->
<g id="edge5" class="edge">
<title>client/src/components/pages/home/index.js&#45;&gt;client/src/components/pages/home/number&#45;of&#45;questions.js</title>
<path fill="none" stroke="#000000" stroke-width="2" stroke-opacity="0.200000" d="M174.21,-305.69C179.4,-305.69 185.04,-305.69 190.83,-305.69"/>
<polygon fill="#000000" fill-opacity="0.200000" stroke="#000000" stroke-width="2" stroke-opacity="0.200000" points="191.15,-307.79 197.15,-305.69 191.15,-303.59 191.15,-307.79"/>
</g>
<!-- client/src/components/pages/home/start&#45;button.js -->
<g id="node8" class="node">
<title>client/src/components/pages/home/start&#45;button.js</title>
<g id="a_node8"><a xlink:href="../client/src/components/pages/home/start-button.js" xlink:title="start&#45;button.js">
<path fill="#ffffcc" stroke="black" d="M279.58,-345.99C279.58,-345.99 221.96,-345.99 221.96,-345.99 218.86,-345.99 215.76,-342.89 215.76,-339.79 215.76,-339.79 215.76,-333.59 215.76,-333.59 215.76,-330.49 218.86,-327.39 221.96,-327.39 221.96,-327.39 279.58,-327.39 279.58,-327.39 282.68,-327.39 285.78,-330.49 285.78,-333.59 285.78,-333.59 285.78,-339.79 285.78,-339.79 285.78,-342.89 282.68,-345.99 279.58,-345.99"/>
<text text-anchor="middle" x="250.77" y="-333.99" font-family="Helvetica,sans-Serif" font-size="9.00">start&#45;button.js</text>
</a>
</g>
</g>
<!-- client/src/components/pages/home/index.js&#45;&gt;client/src/components/pages/home/start&#45;button.js -->
<g id="edge6" class="edge">
<title>client/src/components/pages/home/index.js&#45;&gt;client/src/components/pages/home/start&#45;button.js</title>
<path fill="none" stroke="#000000" stroke-width="2" stroke-opacity="0.200000" d="M174.2,-313.72C181.58,-315.98 189.61,-318.43 197.01,-320.69 202.19,-322.26 207.65,-323.93 213.03,-325.56"/>
<polygon fill="#000000" fill-opacity="0.200000" stroke="#000000" stroke-width="2" stroke-opacity="0.200000" points="212.45,-327.58 218.8,-327.31 213.67,-323.56 212.45,-327.58"/>
</g>
<!-- client/src/components/pages/home/number&#45;of&#45;questions.js&#45;&gt;client/src/init/state.js -->
<g id="edge7" class="edge">
<title>client/src/components/pages/home/number&#45;of&#45;questions.js&#45;&gt;client/src/init/state.js</title>
<path fill="none" stroke="#000000" stroke-width="2" stroke-opacity="0.200000" d="M304.43,-301.19C310.61,-298.58 316.23,-294.88 320.53,-289.69 334.98,-272.2 312.17,-101.41 328.53,-85.69 344.88,-69.96 407.93,-79.56 447.21,-87.46"/>
<polygon fill="#000000" fill-opacity="0.200000" stroke="#000000" stroke-width="2" stroke-opacity="0.200000" points="447,-89.56 453.3,-88.71 447.84,-85.45 447,-89.56"/>
</g>
<!-- client/src/logic/reset&#45;quiz.js -->
<g id="node9" class="node">
<title>client/src/logic/reset&#45;quiz.js</title>
<g id="a_node9"><a xlink:href="../client/src/logic/reset-quiz.js" xlink:title="reset&#45;quiz.js">
<path fill="#ffffcc" stroke="black" d="M407.34,-613.99C407.34,-613.99 355.73,-613.99 355.73,-613.99 352.63,-613.99 349.53,-610.89 349.53,-607.79 349.53,-607.79 349.53,-601.59 349.53,-601.59 349.53,-598.49 352.63,-595.39 355.73,-595.39 355.73,-595.39 407.34,-595.39 407.34,-595.39 410.44,-595.39 413.54,-598.49 413.54,-601.59 413.54,-601.59 413.54,-607.79 413.54,-607.79 413.54,-610.89 410.44,-613.99 407.34,-613.99"/>
<text text-anchor="middle" x="381.53" y="-601.99" font-family="Helvetica,sans-Serif" font-size="9.00">reset&#45;quiz.js</text>
</a>
</g>
</g>
<!-- client/src/components/pages/home/start&#45;button.js&#45;&gt;client/src/logic/reset&#45;quiz.js -->
<g id="edge8" class="edge">
<title>client/src/components/pages/home/start&#45;button.js&#45;&gt;client/src/logic/reset&#45;quiz.js</title>
<path fill="none" stroke="#000000" stroke-width="2" stroke-opacity="0.200000" d="M257.22,-346.26C269.22,-367.47 298.62,-420.18 320.53,-465.69 341.84,-509.98 364.04,-563.73 374.45,-589.49"/>
<polygon fill="#000000" fill-opacity="0.200000" stroke="#000000" stroke-width="2" stroke-opacity="0.200000" points="372.53,-590.35 376.72,-595.13 376.43,-588.78 372.53,-590.35"/>
</g>
<!-- client/src/components/shared/button.js -->
<g id="node10" class="node">
<title>client/src/components/shared/button.js</title>
<g id="a_node10"><a xlink:href="../client/src/components/shared/button.js" xlink:title="button.js">
<path fill="#ffffcc" stroke="black" d="M402.33,-350.99C402.33,-350.99 360.74,-350.99 360.74,-350.99 357.64,-350.99 354.53,-347.89 354.53,-344.79 354.53,-344.79 354.53,-338.59 354.53,-338.59 354.53,-335.49 357.64,-332.39 360.74,-332.39 360.74,-332.39 402.33,-332.39 402.33,-332.39 405.43,-332.39 408.53,-335.49 408.53,-338.59 408.53,-338.59 408.53,-344.79 408.53,-344.79 408.53,-347.89 405.43,-350.99 402.33,-350.99"/>
<text text-anchor="middle" x="381.53" y="-338.99" font-family="Helvetica,sans-Serif" font-size="9.00">button.js</text>
</a>
</g>
</g>
<!-- client/src/components/pages/home/start&#45;button.js&#45;&gt;client/src/components/shared/button.js -->
<g id="edge9" class="edge">
<title>client/src/components/pages/home/start&#45;button.js&#45;&gt;client/src/components/shared/button.js</title>
<path fill="none" stroke="#000000" stroke-width="2" stroke-opacity="0.200000" d="M285.94,-338.01C305.22,-338.76 329.17,-339.69 348.15,-340.43"/>
<polygon fill="#000000" fill-opacity="0.200000" stroke="#000000" stroke-width="2" stroke-opacity="0.200000" points="348.3,-342.54 354.38,-340.67 348.47,-338.34 348.3,-342.54"/>
</g>
<!-- client/src/logic/reset&#45;quiz.js&#45;&gt;client/src/init/state.js -->
<g id="edge26" class="edge">
<title>client/src/logic/reset&#45;quiz.js&#45;&gt;client/src/init/state.js</title>
<path fill="none" stroke="#000000" stroke-width="2" stroke-opacity="0.200000" d="M386.61,-595.03C396.89,-570.23 424.03,-502.06 437.54,-442.69 466.23,-316.59 476.23,-160.05 478.8,-110.49"/>
<polygon fill="#000000" fill-opacity="0.200000" stroke="#000000" stroke-width="2" stroke-opacity="0.200000" points="480.91,-110.32 479.11,-104.22 476.72,-110.11 480.91,-110.32"/>
</g>
<!-- client/src/components/pages/questions/index.js -->
<g id="node11" class="node">
<title>client/src/components/pages/questions/index.js</title>
<g id="a_node11"><a xlink:href="../client/src/components/pages/questions/index.js" xlink:title="index.js">
<path fill="#ffffcc" stroke="black" d="M167.81,-406.99C167.81,-406.99 126.21,-406.99 126.21,-406.99 123.11,-406.99 120.01,-403.89 120.01,-400.79 120.01,-400.79 120.01,-394.59 120.01,-394.59 120.01,-391.49 123.11,-388.39 126.21,-388.39 126.21,-388.39 167.81,-388.39 167.81,-388.39 170.91,-388.39 174.01,-391.49 174.01,-394.59 174.01,-394.59 174.01,-400.79 174.01,-400.79 174.01,-403.89 170.91,-406.99 167.81,-406.99"/>
<text text-anchor="middle" x="147.01" y="-394.99" font-family="Helvetica,sans-Serif" font-size="9.00">index.js</text>
</a>
</g>
</g>
<!-- client/src/components/shared/input&#45;greeting.js -->
<g id="node12" class="node">
<title>client/src/components/shared/input&#45;greeting.js</title>
<g id="a_node12"><a xlink:href="../client/src/components/shared/input-greeting.js" xlink:title="input&#45;greeting.js">
<path fill="#ffffcc" stroke="black" d="M415.35,-412.99C415.35,-412.99 347.72,-412.99 347.72,-412.99 344.62,-412.99 341.52,-409.89 341.52,-406.79 341.52,-406.79 341.52,-400.59 341.52,-400.59 341.52,-397.49 344.62,-394.39 347.72,-394.39 347.72,-394.39 415.35,-394.39 415.35,-394.39 418.45,-394.39 421.55,-397.49 421.55,-400.59 421.55,-400.59 421.55,-406.79 421.55,-406.79 421.55,-409.89 418.45,-412.99 415.35,-412.99"/>
<text text-anchor="middle" x="381.53" y="-400.99" font-family="Helvetica,sans-Serif" font-size="9.00">input&#45;greeting.js</text>
</a>
</g>
</g>
<!-- client/src/components/pages/questions/index.js&#45;&gt;client/src/components/shared/input&#45;greeting.js -->
<g id="edge10" class="edge">
<title>client/src/components/pages/questions/index.js&#45;&gt;client/src/components/shared/input&#45;greeting.js</title>
<path fill="none" stroke="#000000" stroke-width="2" stroke-opacity="0.200000" d="M174.2,-398.85C181.58,-399.15 189.61,-399.46 197.01,-399.69 244.14,-401.16 298.09,-402.27 335.23,-402.94"/>
<polygon fill="#000000" fill-opacity="0.200000" stroke="#000000" stroke-width="2" stroke-opacity="0.200000" points="335.47,-405.04 341.51,-403.05 335.54,-400.84 335.47,-405.04"/>
</g>
<!-- client/src/components/shared/input&#45;greeting.js&#45;&gt;client/src/init/state.js -->
<g id="edge20" class="edge">
<title>client/src/components/shared/input&#45;greeting.js&#45;&gt;client/src/init/state.js</title>
<path fill="none" stroke="#000000" stroke-width="2" stroke-opacity="0.200000" d="M421.62,-398.41C427.67,-396 433.3,-392.57 437.54,-387.69 474.05,-345.64 478.85,-164.78 479.46,-110.29"/>
<polygon fill="#000000" fill-opacity="0.200000" stroke="#000000" stroke-width="2" stroke-opacity="0.200000" points="481.56,-110.03 479.51,-104.01 477.36,-109.99 481.56,-110.03"/>
</g>
<!-- client/src/handlers/change&#45;greeting.js -->
<g id="node18" class="node">
<title>client/src/handlers/change&#45;greeting.js</title>
<g id="a_node18"><a xlink:href="../client/src/handlers/change-greeting.js" xlink:title="change&#45;greeting.js">
<path fill="#ffffcc" stroke="black" d="M420.35,-114.99C420.35,-114.99 342.72,-114.99 342.72,-114.99 339.62,-114.99 336.52,-111.89 336.52,-108.79 336.52,-108.79 336.52,-102.59 336.52,-102.59 336.52,-99.49 339.62,-96.39 342.72,-96.39 342.72,-96.39 420.35,-96.39 420.35,-96.39 423.45,-96.39 426.55,-99.49 426.55,-102.59 426.55,-102.59 426.55,-108.79 426.55,-108.79 426.55,-111.89 423.45,-114.99 420.35,-114.99"/>
<text text-anchor="middle" x="381.53" y="-102.99" font-family="Helvetica,sans-Serif" font-size="9.00">change&#45;greeting.js</text>
</a>
</g>
</g>
<!-- client/src/components/shared/input&#45;greeting.js&#45;&gt;client/src/handlers/change&#45;greeting.js -->
<g id="edge19" class="edge">
<title>client/src/components/shared/input&#45;greeting.js&#45;&gt;client/src/handlers/change&#45;greeting.js</title>
<path fill="none" stroke="#000000" stroke-width="2" stroke-opacity="0.200000" d="M341.53,-398.43C333.64,-395.13 327.02,-389.91 324.53,-381.69 309.3,-331.39 359.77,-171.17 376.4,-120.92"/>
<polygon fill="#000000" fill-opacity="0.200000" stroke="#000000" stroke-width="2" stroke-opacity="0.200000" points="378.44,-121.44 378.34,-115.09 374.45,-120.12 378.44,-121.44"/>
</g>
<!-- client/src/logic/reverse.js -->
<g id="node19" class="node">
<title>client/src/logic/reverse.js</title>
<g id="a_node19"><a xlink:href="../client/src/logic/reverse.js" xlink:title="reverse.js">
<path fill="#ffffcc" stroke="black" d="M501.84,-613.99C501.84,-613.99 459.24,-613.99 459.24,-613.99 456.14,-613.99 453.04,-610.89 453.04,-607.79 453.04,-607.79 453.04,-601.59 453.04,-601.59 453.04,-598.49 456.14,-595.39 459.24,-595.39 459.24,-595.39 501.84,-595.39 501.84,-595.39 504.94,-595.39 508.04,-598.49 508.04,-601.59 508.04,-601.59 508.04,-607.79 508.04,-607.79 508.04,-610.89 504.94,-613.99 501.84,-613.99"/>
<text text-anchor="middle" x="480.54" y="-601.99" font-family="Helvetica,sans-Serif" font-size="9.00">reverse.js</text>
</a>
</g>
</g>
<!-- client/src/components/shared/input&#45;greeting.js&#45;&gt;client/src/logic/reverse.js -->
<g id="edge21" class="edge">
<title>client/src/components/shared/input&#45;greeting.js&#45;&gt;client/src/logic/reverse.js</title>
<path fill="none" stroke="#000000" stroke-width="2" stroke-opacity="0.200000" d="M387.08,-413.11C402.51,-445.09 452.97,-549.63 472.1,-589.27"/>
<polygon fill="#000000" fill-opacity="0.200000" stroke="#000000" stroke-width="2" stroke-opacity="0.200000" points="470.39,-590.56 474.89,-595.05 474.17,-588.73 470.39,-590.56"/>
</g>
<!-- client/src/components/pages/quiz/index.js -->
<g id="node13" class="node">
<title>client/src/components/pages/quiz/index.js</title>
<g id="a_node13"><a xlink:href="../client/src/components/pages/quiz/index.js" xlink:title="index.js">
<path fill="#ffffcc" stroke="black" d="M167.81,-191.99C167.81,-191.99 126.21,-191.99 126.21,-191.99 123.11,-191.99 120.01,-188.89 120.01,-185.79 120.01,-185.79 120.01,-179.59 120.01,-179.59 120.01,-176.49 123.11,-173.39 126.21,-173.39 126.21,-173.39 167.81,-173.39 167.81,-173.39 170.91,-173.39 174.01,-176.49 174.01,-179.59 174.01,-179.59 174.01,-185.79 174.01,-185.79 174.01,-188.89 170.91,-191.99 167.81,-191.99"/>
<text text-anchor="middle" x="147.01" y="-179.99" font-family="Helvetica,sans-Serif" font-size="9.00">index.js</text>
</a>
</g>
</g>
<!-- client/src/components/pages/quiz/index.js&#45;&gt;client/src/init/state.js -->
<g id="edge11" class="edge">
<title>client/src/components/pages/quiz/index.js&#45;&gt;client/src/init/state.js</title>
<path fill="none" stroke="#000000" stroke-width="2" stroke-opacity="0.200000" d="M148.05,-173.37C148.73,-147.97 154.54,-77.45 197.01,-47.69 284.55,13.67 353.03,17.78 437.54,-47.69 448.79,-56.4 436.46,-67.73 445.54,-78.69 446.35,-79.67 447.24,-80.59 448.18,-81.46"/>
<polygon fill="#000000" fill-opacity="0.200000" stroke="#000000" stroke-width="2" stroke-opacity="0.200000" points="447.26,-83.4 453.3,-85.38 449.81,-80.06 447.26,-83.4"/>
</g>
<!-- client/src/components/pages/quiz/quiz&#45;question&#45;panel.js -->
<g id="node14" class="node">
<title>client/src/components/pages/quiz/quiz&#45;question&#45;panel.js</title>
<g id="a_node14"><a xlink:href="../client/src/components/pages/quiz/quiz-question-panel.js" xlink:title="quiz&#45;question&#45;panel.js">
<path fill="#ffffcc" stroke="black" d="M296.09,-191.99C296.09,-191.99 205.45,-191.99 205.45,-191.99 202.35,-191.99 199.25,-188.89 199.25,-185.79 199.25,-185.79 199.25,-179.59 199.25,-179.59 199.25,-176.49 202.35,-173.39 205.45,-173.39 205.45,-173.39 296.09,-173.39 296.09,-173.39 299.19,-173.39 302.29,-176.49 302.29,-179.59 302.29,-179.59 302.29,-185.79 302.29,-185.79 302.29,-188.89 299.19,-191.99 296.09,-191.99"/>
<text text-anchor="middle" x="250.77" y="-179.99" font-family="Helvetica,sans-Serif" font-size="9.00">quiz&#45;question&#45;panel.js</text>
</a>
</g>
</g>
<!-- client/src/components/pages/quiz/index.js&#45;&gt;client/src/components/pages/quiz/quiz&#45;question&#45;panel.js -->
<g id="edge12" class="edge">
<title>client/src/components/pages/quiz/index.js&#45;&gt;client/src/components/pages/quiz/quiz&#45;question&#45;panel.js</title>
<path fill="none" stroke="#000000" stroke-width="2" stroke-opacity="0.200000" d="M174.21,-182.69C180.07,-182.69 186.51,-182.69 193.08,-182.69"/>
<polygon fill="#000000" fill-opacity="0.200000" stroke="#000000" stroke-width="2" stroke-opacity="0.200000" points="193.14,-184.79 199.14,-182.69 193.14,-180.59 193.14,-184.79"/>
</g>
<!-- client/src/components/pages/quiz/restart&#45;button.js -->
<g id="node15" class="node">
<title>client/src/components/pages/quiz/restart&#45;button.js</title>
<g id="a_node15"><a xlink:href="../client/src/components/pages/quiz/restart-button.js" xlink:title="restart&#45;button.js">
<path fill="#ffffcc" stroke="black" d="M283.58,-222.99C283.58,-222.99 217.96,-222.99 217.96,-222.99 214.86,-222.99 211.76,-219.89 211.76,-216.79 211.76,-216.79 211.76,-210.59 211.76,-210.59 211.76,-207.49 214.86,-204.39 217.96,-204.39 217.96,-204.39 283.58,-204.39 283.58,-204.39 286.68,-204.39 289.78,-207.49 289.78,-210.59 289.78,-210.59 289.78,-216.79 289.78,-216.79 289.78,-219.89 286.68,-222.99 283.58,-222.99"/>
<text text-anchor="middle" x="250.77" y="-210.99" font-family="Helvetica,sans-Serif" font-size="9.00">restart&#45;button.js</text>
</a>
</g>
</g>
<!-- client/src/components/pages/quiz/index.js&#45;&gt;client/src/components/pages/quiz/restart&#45;button.js -->
<g id="edge13" class="edge">
<title>client/src/components/pages/quiz/index.js&#45;&gt;client/src/components/pages/quiz/restart&#45;button.js</title>
<path fill="none" stroke="#000000" stroke-width="2" stroke-opacity="0.200000" d="M174.2,-190.72C181.58,-192.98 189.61,-195.43 197.01,-197.69 202.19,-199.26 207.65,-200.93 213.03,-202.56"/>
<polygon fill="#000000" fill-opacity="0.200000" stroke="#000000" stroke-width="2" stroke-opacity="0.200000" points="212.45,-204.58 218.8,-204.31 213.67,-200.56 212.45,-204.58"/>
</g>
<!-- client/src/components/pages/quiz/quiz&#45;question&#45;panel.js&#45;&gt;client/src/init/state.js -->
<g id="edge16" class="edge">
<title>client/src/components/pages/quiz/quiz&#45;question&#45;panel.js&#45;&gt;client/src/init/state.js</title>
<path fill="none" stroke="#000000" stroke-width="2" stroke-opacity="0.200000" d="M255.09,-173.23C263.4,-151.2 287.44,-96.78 328.53,-75.69 371.63,-53.56 390.18,-65.47 437.54,-75.69 439.54,-76.12 446.66,-79.24 454.48,-82.84"/>
<polygon fill="#000000" fill-opacity="0.200000" stroke="#000000" stroke-width="2" stroke-opacity="0.200000" points="453.63,-84.76 459.95,-85.38 455.39,-80.95 453.63,-84.76"/>
</g>
<!-- client/src/components/pages/quiz/restart&#45;button.js&#45;&gt;client/src/logic/reset&#45;quiz.js -->
<g id="edge17" class="edge">
<title>client/src/components/pages/quiz/restart&#45;button.js&#45;&gt;client/src/logic/reset&#45;quiz.js</title>
<path fill="none" stroke="#000000" stroke-width="2" stroke-opacity="0.200000" d="M280.01,-223.03C294.76,-229.48 311.55,-239.65 320.53,-254.69 331.24,-272.64 324.85,-422.1 328.53,-442.69 338.42,-498.11 362.41,-560.8 374.02,-589.22"/>
<polygon fill="#000000" fill-opacity="0.200000" stroke="#000000" stroke-width="2" stroke-opacity="0.200000" points="372.2,-590.31 376.43,-595.06 376.08,-588.71 372.2,-590.31"/>
</g>
<!-- client/src/components/pages/quiz/restart&#45;button.js&#45;&gt;client/src/components/shared/button.js -->
<g id="edge18" class="edge">
<title>client/src/components/pages/quiz/restart&#45;button.js&#45;&gt;client/src/components/shared/button.js</title>
<path fill="none" stroke="#000000" stroke-width="2" stroke-opacity="0.200000" d="M272.58,-223.12C287.09,-230.38 306.32,-241.39 320.53,-254.69 343.51,-276.2 362.65,-307.97 372.76,-326.57"/>
<polygon fill="#000000" fill-opacity="0.200000" stroke="#000000" stroke-width="2" stroke-opacity="0.200000" points="371.17,-328.03 375.84,-332.34 374.87,-326.06 371.17,-328.03"/>
</g>
<!-- client/src/components/pages/quiz/quiz&#45;buttons.js -->
<g id="node16" class="node">
<title>client/src/components/pages/quiz/quiz&#45;buttons.js</title>
<g id="a_node16"><a xlink:href="../client/src/components/pages/quiz/quiz-buttons.js" xlink:title="quiz&#45;buttons.js">
<path fill="#ffffcc" stroke="black" d="M177.82,-222.99C177.82,-222.99 116.19,-222.99 116.19,-222.99 113.09,-222.99 109.99,-219.89 109.99,-216.79 109.99,-216.79 109.99,-210.59 109.99,-210.59 109.99,-207.49 113.09,-204.39 116.19,-204.39 116.19,-204.39 177.82,-204.39 177.82,-204.39 180.92,-204.39 184.02,-207.49 184.02,-210.59 184.02,-210.59 184.02,-216.79 184.02,-216.79 184.02,-219.89 180.92,-222.99 177.82,-222.99"/>
<text text-anchor="middle" x="147.01" y="-210.99" font-family="Helvetica,sans-Serif" font-size="9.00">quiz&#45;buttons.js</text>
</a>
</g>
</g>
<!-- client/src/components/pages/quiz/quiz&#45;buttons.js&#45;&gt;client/src/components/shared/button.js -->
<g id="edge14" class="edge">
<title>client/src/components/pages/quiz/quiz&#45;buttons.js&#45;&gt;client/src/components/shared/button.js</title>
<path fill="none" stroke="#000000" stroke-width="2" stroke-opacity="0.200000" d="M159.5,-223.19C167.82,-230.79 178.53,-242.2 184.01,-254.69 194.89,-279.45 176.89,-357.61 197.01,-375.69 217.43,-394.03 297.51,-390.64 320.53,-375.69 327.87,-370.92 321.98,-363.5 328.53,-357.69 334.1,-352.74 341.18,-349.32 348.31,-346.96"/>
<polygon fill="#000000" fill-opacity="0.200000" stroke="#000000" stroke-width="2" stroke-opacity="0.200000" points="349.11,-348.92 354.27,-345.22 347.93,-344.89 349.11,-348.92"/>
</g>
<!-- client/src/components/shared/div.js -->
<g id="node17" class="node">
<title>client/src/components/shared/div.js</title>
<g id="a_node17"><a xlink:href="../client/src/components/shared/div.js" xlink:title="div.js">
<path fill="#ffffcc" stroke="black" d="M402.33,-381.99C402.33,-381.99 360.74,-381.99 360.74,-381.99 357.64,-381.99 354.53,-378.89 354.53,-375.79 354.53,-375.79 354.53,-369.59 354.53,-369.59 354.53,-366.49 357.64,-363.39 360.74,-363.39 360.74,-363.39 402.33,-363.39 402.33,-363.39 405.43,-363.39 408.53,-366.49 408.53,-369.59 408.53,-369.59 408.53,-375.79 408.53,-375.79 408.53,-378.89 405.43,-381.99 402.33,-381.99"/>
<text text-anchor="middle" x="381.53" y="-369.99" font-family="Helvetica,sans-Serif" font-size="9.00">div.js</text>
</a>
</g>
</g>
<!-- client/src/components/pages/quiz/quiz&#45;buttons.js&#45;&gt;client/src/components/shared/div.js -->
<g id="edge15" class="edge">
<title>client/src/components/pages/quiz/quiz&#45;buttons.js&#45;&gt;client/src/components/shared/div.js</title>
<path fill="none" stroke="#000000" stroke-width="2" stroke-opacity="0.200000" d="M159.53,-223.18C167.86,-230.77 178.58,-242.17 184.01,-254.69 195.67,-281.52 175.33,-366.05 197.01,-385.69 218.48,-405.13 301.64,-390.5 348.3,-380.32"/>
<polygon fill="#000000" fill-opacity="0.200000" stroke="#000000" stroke-width="2" stroke-opacity="0.200000" points="348.95,-382.32 354.36,-378.98 348.05,-378.22 348.95,-382.32"/>
</g>
<!-- client/src/handlers/change&#45;greeting.js&#45;&gt;client/src/init/state.js -->
<g id="edge22" class="edge">
<title>client/src/handlers/change&#45;greeting.js&#45;&gt;client/src/init/state.js</title>
<path fill="none" stroke="#000000" stroke-width="2" stroke-opacity="0.200000" d="M426.78,-100.67C433.6,-99.9 440.53,-99.11 447.04,-98.37"/>
<polygon fill="#000000" fill-opacity="0.200000" stroke="#000000" stroke-width="2" stroke-opacity="0.200000" points="447.65,-100.42 453.37,-97.65 447.18,-96.24 447.65,-100.42"/>
</g>
<!-- client/src/handlers/change&#45;greeting.js&#45;&gt;client/src/logic/reverse.js -->
<g id="edge23" class="edge">
<title>client/src/handlers/change&#45;greeting.js&#45;&gt;client/src/logic/reverse.js</title>
<path fill="none" stroke="#000000" stroke-width="2" stroke-opacity="0.200000" d="M385.29,-115.08C394.01,-145.01 421.3,-240.88 437.54,-321.69 457.89,-422.92 472.88,-546.35 477.8,-589.18"/>
<polygon fill="#000000" fill-opacity="0.200000" stroke="#000000" stroke-width="2" stroke-opacity="0.200000" points="475.74,-589.62 478.51,-595.34 479.91,-589.14 475.74,-589.62"/>
</g>
<!-- client/src/init/index.js -->
<g id="node20" class="node">
<title>client/src/init/index.js</title>
<g id="a_node20"><a xlink:href="../client/src/init/index.js" xlink:title="index.js">
<path fill="#ffffcc" stroke="black" d="M501.34,-72.99C501.34,-72.99 459.74,-72.99 459.74,-72.99 456.64,-72.99 453.54,-69.89 453.54,-66.79 453.54,-66.79 453.54,-60.59 453.54,-60.59 453.54,-57.49 456.64,-54.39 459.74,-54.39 459.74,-54.39 501.34,-54.39 501.34,-54.39 504.44,-54.39 507.54,-57.49 507.54,-60.59 507.54,-60.59 507.54,-66.79 507.54,-66.79 507.54,-69.89 504.44,-72.99 501.34,-72.99"/>
<text text-anchor="middle" x="480.54" y="-60.99" font-family="Helvetica,sans-Serif" font-size="9.00">index.js</text>
</a>
</g>
</g>
<!-- client/src/init/router.js -->
<g id="node21" class="node">
<title>client/src/init/router.js</title>
<g id="a_node21"><a xlink:href="../client/src/init/router.js" xlink:title="router.js">
<path fill="#ffffcc" stroke="black" d="M571.84,-87.99C571.84,-87.99 530.24,-87.99 530.24,-87.99 527.14,-87.99 524.04,-84.89 524.04,-81.79 524.04,-81.79 524.04,-75.59 524.04,-75.59 524.04,-72.49 527.14,-69.39 530.24,-69.39 530.24,-69.39 571.84,-69.39 571.84,-69.39 574.94,-69.39 578.04,-72.49 578.04,-75.59 578.04,-75.59 578.04,-81.79 578.04,-81.79 578.04,-84.89 574.94,-87.99 571.84,-87.99"/>
<text text-anchor="middle" x="551.04" y="-75.99" font-family="Helvetica,sans-Serif" font-size="9.00">router.js</text>
</a>
</g>
</g>
<!-- client/src/init/index.js&#45;&gt;client/src/init/router.js -->
<g id="edge24" class="edge">
<title>client/src/init/index.js&#45;&gt;client/src/init/router.js</title>
<path fill="none" stroke="#000000" stroke-width="2" stroke-opacity="0.200000" d="M507.83,-69.44C511.13,-70.17 514.54,-70.91 517.91,-71.65"/>
<polygon fill="#000000" fill-opacity="0.200000" stroke="#000000" stroke-width="2" stroke-opacity="0.200000" points="517.63,-73.74 523.94,-72.97 518.52,-69.64 517.63,-73.74"/>
</g>
<!-- client/src/routes.js -->
<g id="node22" class="node">
<title>client/src/routes.js</title>
<g id="a_node22"><a xlink:href="../client/src/routes.js" xlink:title="routes.js">
<path fill="#ffffcc" stroke="black" d="M71.8,-406.99C71.8,-406.99 30.2,-406.99 30.2,-406.99 27.1,-406.99 24,-403.89 24,-400.79 24,-400.79 24,-394.59 24,-394.59 24,-391.49 27.1,-388.39 30.2,-388.39 30.2,-388.39 71.8,-388.39 71.8,-388.39 74.9,-388.39 78,-391.49 78,-394.59 78,-394.59 78,-400.79 78,-400.79 78,-403.89 74.9,-406.99 71.8,-406.99"/>
<text text-anchor="middle" x="51" y="-394.99" font-family="Helvetica,sans-Serif" font-size="9.00">routes.js</text>
</a>
</g>
</g>
<!-- client/src/init/router.js&#45;&gt;client/src/routes.js -->
<g id="edge25" class="edge">
<title>client/src/init/router.js&#45;&gt;client/src/routes.js</title>
<path fill="none" stroke="#000000" stroke-width="2" stroke-opacity="0.200000" d="M549.86,-88.16C548.38,-162.75 537.84,-653.15 516.04,-674.69 473.79,-716.43 441.93,-680.69 382.53,-680.69 249.77,-680.69 249.77,-680.69 249.77,-680.69 158.2,-680.69 135.06,-633 86,-555.69 56.93,-509.87 52.38,-443.12 51.89,-413.2"/>
<polygon fill="#000000" fill-opacity="0.200000" stroke="#000000" stroke-width="2" stroke-opacity="0.200000" points="53.99,-413.05 51.84,-407.07 49.79,-413.09 53.99,-413.05"/>
</g>
<!-- client/src/routes.js&#45;&gt;client/src/components/layout/page.js -->
<g id="edge28" class="edge">
<title>client/src/routes.js&#45;&gt;client/src/components/layout/page.js</title>
<path fill="none" stroke="#000000" stroke-width="2" stroke-opacity="0.200000" d="M59.42,-407.06C66.04,-415.22 76.19,-427.19 86,-436.69 99.36,-449.62 115.79,-462.88 128.08,-472.33"/>
<polygon fill="#000000" fill-opacity="0.200000" stroke="#000000" stroke-width="2" stroke-opacity="0.200000" points="127.03,-474.17 133.07,-476.14 129.57,-470.83 127.03,-474.17"/>
</g>
<!-- client/src/routes.js&#45;&gt;client/src/components/pages/home/index.js -->
<g id="edge29" class="edge">
<title>client/src/routes.js&#45;&gt;client/src/components/pages/home/index.js</title>
<path fill="none" stroke="#000000" stroke-width="2" stroke-opacity="0.200000" d="M61.71,-388.19C78.4,-371.85 112.61,-338.37 131.92,-319.47"/>
<polygon fill="#000000" fill-opacity="0.200000" stroke="#000000" stroke-width="2" stroke-opacity="0.200000" points="133.67,-320.69 136.49,-315 130.74,-317.69 133.67,-320.69"/>
</g>
<!-- client/src/routes.js&#45;&gt;client/src/components/pages/questions/index.js -->
<g id="edge30" class="edge">
<title>client/src/routes.js&#45;&gt;client/src/components/pages/questions/index.js</title>
<path fill="none" stroke="#000000" stroke-width="2" stroke-opacity="0.200000" d="M78.19,-397.69C89.19,-397.69 102.1,-397.69 113.68,-397.69"/>
<polygon fill="#000000" fill-opacity="0.200000" stroke="#000000" stroke-width="2" stroke-opacity="0.200000" points="113.96,-399.79 119.96,-397.69 113.96,-395.59 113.96,-399.79"/>
</g>
<!-- client/src/routes.js&#45;&gt;client/src/components/pages/quiz/index.js -->
<g id="edge31" class="edge">
<title>client/src/routes.js&#45;&gt;client/src/components/pages/quiz/index.js</title>
<path fill="none" stroke="#000000" stroke-width="2" stroke-opacity="0.200000" d="M52.3,-388.19C53.64,-352.52 60.13,-227.04 86,-198.69 93.17,-190.83 103.72,-186.65 113.99,-184.49"/>
<polygon fill="#000000" fill-opacity="0.200000" stroke="#000000" stroke-width="2" stroke-opacity="0.200000" points="114.43,-186.54 119.97,-183.43 113.7,-182.41 114.43,-186.54"/>
</g>
<!-- client/src/logic/reverse.spec.js -->
<g id="node23" class="node">
<title>client/src/logic/reverse.spec.js</title>
<g id="a_node23"><a xlink:href="../client/src/logic/reverse.spec.js" xlink:title="reverse.spec.js">
<path fill="#ffffcc" stroke="black" d="M413.34,-644.99C413.34,-644.99 349.73,-644.99 349.73,-644.99 346.63,-644.99 343.53,-641.89 343.53,-638.79 343.53,-638.79 343.53,-632.59 343.53,-632.59 343.53,-629.49 346.63,-626.39 349.73,-626.39 349.73,-626.39 413.34,-626.39 413.34,-626.39 416.44,-626.39 419.54,-629.49 419.54,-632.59 419.54,-632.59 419.54,-638.79 419.54,-638.79 419.54,-641.89 416.44,-644.99 413.34,-644.99"/>
<text text-anchor="middle" x="381.53" y="-632.99" font-family="Helvetica,sans-Serif" font-size="9.00">reverse.spec.js</text>
</a>
</g>
</g>
<!-- client/src/logic/reverse.spec.js&#45;&gt;client/src/logic/reverse.js -->
<g id="edge27" class="edge">
<title>client/src/logic/reverse.spec.js&#45;&gt;client/src/logic/reverse.js</title>
<path fill="none" stroke="#000000" stroke-width="2" stroke-opacity="0.200000" d="M415.79,-626.36C422.99,-624.25 430.54,-621.95 437.54,-619.69 440.94,-618.59 444.48,-617.4 447.99,-616.18"/>
<polygon fill="#000000" fill-opacity="0.200000" stroke="#000000" stroke-width="2" stroke-opacity="0.200000" points="448.89,-618.1 453.86,-614.13 447.5,-614.13 448.89,-618.1"/>
</g>
</g>
</svg>
