<?xml version="1.0" encoding="UTF-8" standalone="no"?>
<!DOCTYPE svg PUBLIC "-//W3C//DTD SVG 1.1//EN"
 "http://www.w3.org/Graphics/SVG/1.1/DTD/svg11.dtd">
<!-- Generated by graphviz version 2.44.0 (20200408.0750)
 -->
<!-- Title: dependency&#45;cruiser output Pages: 1 -->
<svg width="492pt" height="655pt"
 viewBox="0.00 0.00 492.01 655.00" xmlns="http://www.w3.org/2000/svg" xmlns:xlink="http://www.w3.org/1999/xlink">
<g id="graph0" class="graph" transform="scale(1 1) rotate(0) translate(4 651)">
<title>dependency&#45;cruiser output</title>
<polygon fill="white" stroke="transparent" points="-4,4 -4,-651 488.01,-651 488.01,4 -4,4"/>
<g id="clust1" class="cluster">
<title>cluster_client</title>
<path fill="#ffffff" stroke="black" stroke-width="2" d="M20,-8C20,-8 464.01,-8 464.01,-8 470.01,-8 476.01,-14 476.01,-20 476.01,-20 476.01,-627 476.01,-627 476.01,-633 470.01,-639 464.01,-639 464.01,-639 20,-639 20,-639 14,-639 8,-633 8,-627 8,-627 8,-20 8,-20 8,-14 14,-8 20,-8"/>
<text text-anchor="middle" x="242.01" y="-626.9" font-family="Helvetica,sans-Serif" font-weight="bold" font-size="9.00">client</text>
</g>
<g id="clust2" class="cluster">
<title>cluster_client/src</title>
<path fill="#ffffff" stroke="black" stroke-width="2" d="M28,-16C28,-16 456.01,-16 456.01,-16 462.01,-16 468.01,-22 468.01,-28 468.01,-28 468.01,-600 468.01,-600 468.01,-606 462.01,-612 456.01,-612 456.01,-612 28,-612 28,-612 22,-612 16,-606 16,-600 16,-600 16,-28 16,-28 16,-22 22,-16 28,-16"/>
<text text-anchor="middle" x="242.01" y="-599.9" font-family="Helvetica,sans-Serif" font-weight="bold" font-size="9.00">src</text>
</g>
<g id="clust3" class="cluster">
<title>cluster_client/src/components</title>
<path fill="#ffffff" stroke="black" stroke-width="2" d="M98,-34C98,-34 299.51,-34 299.51,-34 305.51,-34 311.51,-40 311.51,-46 311.51,-46 311.51,-451 311.51,-451 311.51,-457 305.51,-463 299.51,-463 299.51,-463 98,-463 98,-463 92,-463 86,-457 86,-451 86,-451 86,-46 86,-46 86,-40 92,-34 98,-34"/>
<text text-anchor="middle" x="198.76" y="-450.9" font-family="Helvetica,sans-Serif" font-weight="bold" font-size="9.00">components</text>
</g>
<g id="clust4" class="cluster">
<title>cluster_client/src/components/layout</title>
<path fill="#ffffff" stroke="black" stroke-width="2" d="M114,-352C114,-352 256.76,-352 256.76,-352 262.76,-352 268.76,-358 268.76,-364 268.76,-364 268.76,-424 268.76,-424 268.76,-430 262.76,-436 256.76,-436 256.76,-436 114,-436 114,-436 108,-436 102,-430 102,-424 102,-424 102,-364 102,-364 102,-358 108,-352 114,-352"/>
<text text-anchor="middle" x="185.38" y="-423.9" font-family="Helvetica,sans-Serif" font-weight="bold" font-size="9.00">layout</text>
</g>
<g id="clust5" class="cluster">
<title>cluster_client/src/components/pages</title>
<path fill="#ffffff" stroke="black" stroke-width="2" d="M106,-42C106,-42 291.51,-42 291.51,-42 297.51,-42 303.51,-48 303.51,-54 303.51,-54 303.51,-271 303.51,-271 303.51,-277 297.51,-283 291.51,-283 291.51,-283 106,-283 106,-283 100,-283 94,-277 94,-271 94,-271 94,-54 94,-54 94,-48 100,-42 106,-42"/>
<text text-anchor="middle" x="198.76" y="-270.9" font-family="Helvetica,sans-Serif" font-weight="bold" font-size="9.00">pages</text>
</g>
<g id="clust6" class="cluster">
<title>cluster_client/src/components/pages/home</title>
<path fill="#ffffff" stroke="black" stroke-width="2" d="M114,-50C114,-50 283.51,-50 283.51,-50 289.51,-50 295.51,-56 295.51,-62 295.51,-62 295.51,-122 295.51,-122 295.51,-128 289.51,-134 283.51,-134 283.51,-134 114,-134 114,-134 108,-134 102,-128 102,-122 102,-122 102,-62 102,-62 102,-56 108,-50 114,-50"/>
<text text-anchor="middle" x="198.76" y="-121.9" font-family="Helvetica,sans-Serif" font-weight="bold" font-size="9.00">home</text>
</g>
<g id="clust7" class="cluster">
<title>cluster_client/src/components/pages/questions</title>
<path fill="#ffffff" stroke="black" stroke-width="2" d="M114,-203C114,-203 160,-203 160,-203 166,-203 172,-209 172,-215 172,-215 172,-244 172,-244 172,-250 166,-256 160,-256 160,-256 114,-256 114,-256 108,-256 102,-250 102,-244 102,-244 102,-215 102,-215 102,-209 108,-203 114,-203"/>
<text text-anchor="middle" x="137" y="-243.9" font-family="Helvetica,sans-Serif" font-weight="bold" font-size="9.00">questions</text>
</g>
<g id="clust8" class="cluster">
<title>cluster_client/src/components/pages/quiz</title>
<path fill="#ffffff" stroke="black" stroke-width="2" d="M114,-142C114,-142 160,-142 160,-142 166,-142 172,-148 172,-154 172,-154 172,-183 172,-183 172,-189 166,-195 160,-195 160,-195 114,-195 114,-195 108,-195 102,-189 102,-183 102,-183 102,-154 102,-154 102,-148 108,-142 114,-142"/>
<text text-anchor="middle" x="137" y="-182.9" font-family="Helvetica,sans-Serif" font-weight="bold" font-size="9.00">quiz</text>
</g>
<g id="clust9" class="cluster">
<title>cluster_client/src/components/shared</title>
<path fill="#ffffff" stroke="black" stroke-width="2" d="M197.75,-291C197.75,-291 269.76,-291 269.76,-291 275.76,-291 281.76,-297 281.76,-303 281.76,-303 281.76,-332 281.76,-332 281.76,-338 275.76,-344 269.76,-344 269.76,-344 197.75,-344 197.75,-344 191.75,-344 185.75,-338 185.75,-332 185.75,-332 185.75,-303 185.75,-303 185.75,-297 191.75,-291 197.75,-291"/>
<text text-anchor="middle" x="233.76" y="-331.9" font-family="Helvetica,sans-Serif" font-weight="bold" font-size="9.00">shared</text>
</g>
<g id="clust10" class="cluster">
<title>cluster_client/src/handlers</title>
<path fill="#ffffff" stroke="black" stroke-width="2" d="M192.75,-471C192.75,-471 274.77,-471 274.77,-471 280.77,-471 286.77,-477 286.77,-483 286.77,-483 286.77,-512 286.77,-512 286.77,-518 280.77,-524 274.77,-524 274.77,-524 192.75,-524 192.75,-524 186.75,-524 180.75,-518 180.75,-512 180.75,-512 180.75,-483 180.75,-483 180.75,-477 186.75,-471 192.75,-471"/>
<text text-anchor="middle" x="233.76" y="-511.9" font-family="Helvetica,sans-Serif" font-weight="bold" font-size="9.00">handlers</text>
</g>
<g id="clust11" class="cluster">
<title>cluster_client/src/init</title>
<path fill="#ffffff" stroke="black" stroke-width="2" d="M331.51,-50C331.51,-50 448.01,-50 448.01,-50 454.01,-50 460.01,-56 460.01,-62 460.01,-62 460.01,-122 460.01,-122 460.01,-128 454.01,-134 448.01,-134 448.01,-134 331.51,-134 331.51,-134 325.51,-134 319.51,-128 319.51,-122 319.51,-122 319.51,-62 319.51,-62 319.51,-56 325.51,-50 331.51,-50"/>
<text text-anchor="middle" x="389.76" y="-121.9" font-family="Helvetica,sans-Serif" font-weight="bold" font-size="9.00">init</text>
</g>
<g id="clust12" class="cluster">
<title>cluster_client/src/logic</title>
<path fill="#ffffff" stroke="black" stroke-width="2" d="M199.5,-532C199.5,-532 378.01,-532 378.01,-532 384.01,-532 390.01,-538 390.01,-544 390.01,-544 390.01,-573 390.01,-573 390.01,-579 384.01,-585 378.01,-585 378.01,-585 199.5,-585 199.5,-585 193.5,-585 187.5,-579 187.5,-573 187.5,-573 187.5,-544 187.5,-544 187.5,-538 193.5,-532 199.5,-532"/>
<text text-anchor="middle" x="288.76" y="-572.9" font-family="Helvetica,sans-Serif" font-weight="bold" font-size="9.00">logic</text>
</g>
<!-- client/src/components/layout/footer.js -->
<g id="node1" class="node">
<title>client/src/components/layout/footer.js</title>
<g id="a_node1"><a xlink:href="../client/src/components/layout/footer.js" xlink:title="footer.js">
<path fill="#ffffcc" stroke="black" d="M254.56,-378.3C254.56,-378.3 212.96,-378.3 212.96,-378.3 209.86,-378.3 206.76,-375.2 206.76,-372.1 206.76,-372.1 206.76,-365.9 206.76,-365.9 206.76,-362.8 209.86,-359.7 212.96,-359.7 212.96,-359.7 254.56,-359.7 254.56,-359.7 257.66,-359.7 260.76,-362.8 260.76,-365.9 260.76,-365.9 260.76,-372.1 260.76,-372.1 260.76,-375.2 257.66,-378.3 254.56,-378.3"/>
<text text-anchor="middle" x="233.76" y="-366.3" font-family="Helvetica,sans-Serif" font-size="9.00">footer.js</text>
</a>
</g>
</g>
<!-- client/src/components/layout/navbar.js -->
<g id="node2" class="node">
<title>client/src/components/layout/navbar.js</title>
<g id="a_node2"><a xlink:href="../client/src/components/layout/navbar.js" xlink:title="navbar.js">
<path fill="#ffffcc" stroke="black" d="M254.56,-409.3C254.56,-409.3 212.96,-409.3 212.96,-409.3 209.86,-409.3 206.76,-406.2 206.76,-403.1 206.76,-403.1 206.76,-396.9 206.76,-396.9 206.76,-393.8 209.86,-390.7 212.96,-390.7 212.96,-390.7 254.56,-390.7 254.56,-390.7 257.66,-390.7 260.76,-393.8 260.76,-396.9 260.76,-396.9 260.76,-403.1 260.76,-403.1 260.76,-406.2 257.66,-409.3 254.56,-409.3"/>
<text text-anchor="middle" x="233.76" y="-397.3" font-family="Helvetica,sans-Serif" font-size="9.00">navbar.js</text>
</a>
</g>
</g>
<!-- client/src/components/layout/page.js -->
<g id="node3" class="node">
<title>client/src/components/layout/page.js</title>
<g id="a_node3"><a xlink:href="../client/src/components/layout/page.js" xlink:title="page.js">
<path fill="#ffffcc" stroke="black" d="M157.8,-378.3C157.8,-378.3 116.2,-378.3 116.2,-378.3 113.1,-378.3 110,-375.2 110,-372.1 110,-372.1 110,-365.9 110,-365.9 110,-362.8 113.1,-359.7 116.2,-359.7 116.2,-359.7 157.8,-359.7 157.8,-359.7 160.9,-359.7 164,-362.8 164,-365.9 164,-365.9 164,-372.1 164,-372.1 164,-375.2 160.9,-378.3 157.8,-378.3"/>
<text text-anchor="middle" x="137" y="-366.3" font-family="Helvetica,sans-Serif" font-size="9.00">page.js</text>
</a>
</g>
</g>
<!-- client/src/components/layout/page.js&#45;&gt;client/src/components/layout/footer.js -->
<g id="edge1" class="edge">
<title>client/src/components/layout/page.js&#45;&gt;client/src/components/layout/footer.js</title>
<path fill="none" stroke="#000000" stroke-width="2" stroke-opacity="0.200000" d="M164.14,-369C175.43,-369 188.75,-369 200.63,-369"/>
<polygon fill="#000000" fill-opacity="0.200000" stroke="#000000" stroke-width="2" stroke-opacity="0.200000" points="200.7,-371.1 206.7,-369 200.7,-366.9 200.7,-371.1"/>
</g>
<!-- client/src/components/layout/page.js&#45;&gt;client/src/components/layout/navbar.js -->
<g id="edge2" class="edge">
<title>client/src/components/layout/page.js&#45;&gt;client/src/components/layout/navbar.js</title>
<path fill="none" stroke="#000000" stroke-width="2" stroke-opacity="0.200000" d="M163.7,-378.4C169.07,-380.3 174.71,-382.25 180,-384 186.61,-386.18 193.72,-388.42 200.52,-390.49"/>
<polygon fill="#000000" fill-opacity="0.200000" stroke="#000000" stroke-width="2" stroke-opacity="0.200000" points="200.3,-392.62 206.65,-392.36 201.52,-388.6 200.3,-392.62"/>
</g>
<!-- client/src/components/pages/home/index.js -->
<g id="node4" class="node">
<title>client/src/components/pages/home/index.js</title>
<g id="a_node4"><a xlink:href="../client/src/components/pages/home/index.js" xlink:title="index.js">
<path fill="#ffffcc" stroke="black" d="M157.8,-92.3C157.8,-92.3 116.2,-92.3 116.2,-92.3 113.1,-92.3 110,-89.2 110,-86.1 110,-86.1 110,-79.9 110,-79.9 110,-76.8 113.1,-73.7 116.2,-73.7 116.2,-73.7 157.8,-73.7 157.8,-73.7 160.9,-73.7 164,-76.8 164,-79.9 164,-79.9 164,-86.1 164,-86.1 164,-89.2 160.9,-92.3 157.8,-92.3"/>
<text text-anchor="middle" x="137" y="-80.3" font-family="Helvetica,sans-Serif" font-size="9.00">index.js</text>
</a>
</g>
</g>
<!-- client/src/init/state.js -->
<g id="node5" class="node">
<title>client/src/init/state.js</title>
<g id="a_node5"><a xlink:href="../client/src/init/state.js" xlink:title="state.js">
<path fill="#ffffcc" stroke="black" d="M375.31,-107.3C375.31,-107.3 333.71,-107.3 333.71,-107.3 330.61,-107.3 327.51,-104.2 327.51,-101.1 327.51,-101.1 327.51,-94.9 327.51,-94.9 327.51,-91.8 330.61,-88.7 333.71,-88.7 333.71,-88.7 375.31,-88.7 375.31,-88.7 378.41,-88.7 381.51,-91.8 381.51,-94.9 381.51,-94.9 381.51,-101.1 381.51,-101.1 381.51,-104.2 378.41,-107.3 375.31,-107.3"/>
<text text-anchor="middle" x="354.51" y="-95.3" font-family="Helvetica,sans-Serif" font-size="9.00">state.js</text>
</a>
</g>
</g>
<!-- client/src/components/pages/home/index.js&#45;&gt;client/src/init/state.js -->
<g id="edge3" class="edge">
<title>client/src/components/pages/home/index.js&#45;&gt;client/src/init/state.js</title>
<path fill="none" stroke="#000000" stroke-width="2" stroke-opacity="0.200000" d="M164.16,-75.52C167.01,-74 169.71,-72.17 172,-70 178.35,-63.98 172.66,-56.77 180,-52 192.25,-44.04 299.93,-43.1 311.51,-52 322.46,-60.41 310.67,-71.41 319.51,-82 320.33,-82.98 321.22,-83.9 322.16,-84.76"/>
<polygon fill="#000000" fill-opacity="0.200000" stroke="#000000" stroke-width="2" stroke-opacity="0.200000" points="321.25,-86.71 327.29,-88.67 323.79,-83.37 321.25,-86.71"/>
</g>
<!-- client/src/components/pages/home/instructions.js -->
<g id="node6" class="node">
<title>client/src/components/pages/home/instructions.js</title>
<g id="a_node6"><a xlink:href="../client/src/components/pages/home/instructions.js" xlink:title="instructions.js">
<path fill="#ffffcc" stroke="black" d="M262.56,-76.3C262.56,-76.3 204.95,-76.3 204.95,-76.3 201.85,-76.3 198.75,-73.2 198.75,-70.1 198.75,-70.1 198.75,-63.9 198.75,-63.9 198.75,-60.8 201.85,-57.7 204.95,-57.7 204.95,-57.7 262.56,-57.7 262.56,-57.7 265.66,-57.7 268.76,-60.8 268.76,-63.9 268.76,-63.9 268.76,-70.1 268.76,-70.1 268.76,-73.2 265.66,-76.3 262.56,-76.3"/>
<text text-anchor="middle" x="233.76" y="-64.3" font-family="Helvetica,sans-Serif" font-size="9.00">instructions.js</text>
</a>
</g>
</g>
<!-- client/src/components/pages/home/index.js&#45;&gt;client/src/components/pages/home/instructions.js -->
<g id="edge4" class="edge">
<title>client/src/components/pages/home/index.js&#45;&gt;client/src/components/pages/home/instructions.js</title>
<path fill="none" stroke="#000000" stroke-width="2" stroke-opacity="0.200000" d="M164.14,-78.59C172.94,-77.1 182.98,-75.41 192.6,-73.78"/>
<polygon fill="#000000" fill-opacity="0.200000" stroke="#000000" stroke-width="2" stroke-opacity="0.200000" points="192.96,-75.85 198.53,-72.78 192.26,-71.71 192.96,-75.85"/>
</g>
<!-- client/src/components/pages/home/number&#45;of&#45;questions.js -->
<g id="node7" class="node">
<title>client/src/components/pages/home/number&#45;of&#45;questions.js</title>
<g id="a_node7"><a xlink:href="../client/src/components/pages/home/number-of-questions.js" xlink:title="number&#45;of&#45;questions.js">
<path fill="#ffffcc" stroke="black" d="M281.07,-107.3C281.07,-107.3 186.44,-107.3 186.44,-107.3 183.34,-107.3 180.24,-104.2 180.24,-101.1 180.24,-101.1 180.24,-94.9 180.24,-94.9 180.24,-91.8 183.34,-88.7 186.44,-88.7 186.44,-88.7 281.07,-88.7 281.07,-88.7 284.17,-88.7 287.27,-91.8 287.27,-94.9 287.27,-94.9 287.27,-101.1 287.27,-101.1 287.27,-104.2 284.17,-107.3 281.07,-107.3"/>
<text text-anchor="middle" x="233.76" y="-95.3" font-family="Helvetica,sans-Serif" font-size="9.00">number&#45;of&#45;questions.js</text>
</a>
</g>
</g>
<!-- client/src/components/pages/home/index.js&#45;&gt;client/src/components/pages/home/number&#45;of&#45;questions.js -->
<g id="edge5" class="edge">
<title>client/src/components/pages/home/index.js&#45;&gt;client/src/components/pages/home/number&#45;of&#45;questions.js</title>
<path fill="none" stroke="#000000" stroke-width="2" stroke-opacity="0.200000" d="M164.14,-87.14C167.29,-87.64 170.6,-88.16 173.99,-88.7"/>
<polygon fill="#000000" fill-opacity="0.200000" stroke="#000000" stroke-width="2" stroke-opacity="0.200000" points="173.91,-90.81 180.17,-89.68 174.57,-86.66 173.91,-90.81"/>
</g>
<!-- client/src/components/pages/home/number&#45;of&#45;questions.js&#45;&gt;client/src/init/state.js -->
<g id="edge6" class="edge">
<title>client/src/components/pages/home/number&#45;of&#45;questions.js&#45;&gt;client/src/init/state.js</title>
<path fill="none" stroke="#000000" stroke-width="2" stroke-opacity="0.200000" d="M287.54,-98C298.92,-98 310.64,-98 320.98,-98"/>
<polygon fill="#000000" fill-opacity="0.200000" stroke="#000000" stroke-width="2" stroke-opacity="0.200000" points="321.23,-100.1 327.23,-98 321.23,-95.9 321.23,-100.1"/>
</g>
<!-- client/src/components/pages/questions/index.js -->
<g id="node8" class="node">
<title>client/src/components/pages/questions/index.js</title>
<g id="a_node8"><a xlink:href="../client/src/components/pages/questions/index.js" xlink:title="index.js">
<path fill="#ffffcc" stroke="black" d="M157.8,-229.3C157.8,-229.3 116.2,-229.3 116.2,-229.3 113.1,-229.3 110,-226.2 110,-223.1 110,-223.1 110,-216.9 110,-216.9 110,-213.8 113.1,-210.7 116.2,-210.7 116.2,-210.7 157.8,-210.7 157.8,-210.7 160.9,-210.7 164,-213.8 164,-216.9 164,-216.9 164,-223.1 164,-223.1 164,-226.2 160.9,-229.3 157.8,-229.3"/>
<text text-anchor="middle" x="137" y="-217.3" font-family="Helvetica,sans-Serif" font-size="9.00">index.js</text>
</a>
</g>
</g>
<!-- client/src/components/shared/input&#45;greeting.js -->
<g id="node9" class="node">
<title>client/src/components/shared/input&#45;greeting.js</title>
<g id="a_node9"><a xlink:href="../client/src/components/shared/input-greeting.js" xlink:title="input&#45;greeting.js">
<path fill="#ffffcc" stroke="black" d="M267.57,-317.3C267.57,-317.3 199.95,-317.3 199.95,-317.3 196.85,-317.3 193.74,-314.2 193.74,-311.1 193.74,-311.1 193.74,-304.9 193.74,-304.9 193.74,-301.8 196.85,-298.7 199.95,-298.7 199.95,-298.7 267.57,-298.7 267.57,-298.7 270.67,-298.7 273.77,-301.8 273.77,-304.9 273.77,-304.9 273.77,-311.1 273.77,-311.1 273.77,-314.2 270.67,-317.3 267.57,-317.3"/>
<text text-anchor="middle" x="233.76" y="-305.3" font-family="Helvetica,sans-Serif" font-size="9.00">input&#45;greeting.js</text>
</a>
</g>
</g>
<!-- client/src/components/pages/questions/index.js&#45;&gt;client/src/components/shared/input&#45;greeting.js -->
<g id="edge7" class="edge">
<title>client/src/components/pages/questions/index.js&#45;&gt;client/src/components/shared/input&#45;greeting.js</title>
<path fill="none" stroke="#000000" stroke-width="2" stroke-opacity="0.200000" d="M148.14,-229.42C164.95,-245.03 198.67,-276.34 218.08,-294.37"/>
<polygon fill="#000000" fill-opacity="0.200000" stroke="#000000" stroke-width="2" stroke-opacity="0.200000" points="216.86,-296.11 222.69,-298.65 219.72,-293.03 216.86,-296.11"/>
</g>
<!-- client/src/components/shared/input&#45;greeting.js&#45;&gt;client/src/init/state.js -->
<g id="edge10" class="edge">
<title>client/src/components/shared/input&#45;greeting.js&#45;&gt;client/src/init/state.js</title>
<path fill="none" stroke="#000000" stroke-width="2" stroke-opacity="0.200000" d="M240.17,-298.43C259.02,-265.09 321.94,-153.83 344.97,-113.1"/>
<polygon fill="#000000" fill-opacity="0.200000" stroke="#000000" stroke-width="2" stroke-opacity="0.200000" points="346.94,-113.88 348.07,-107.63 343.29,-111.81 346.94,-113.88"/>
</g>
<!-- client/src/handlers/change&#45;greeting.js -->
<g id="node11" class="node">
<title>client/src/handlers/change&#45;greeting.js</title>
<g id="a_node11"><a xlink:href="../client/src/handlers/change-greeting.js" xlink:title="change&#45;greeting.js">
<path fill="#ffffcc" stroke="black" d="M272.58,-497.3C272.58,-497.3 194.94,-497.3 194.94,-497.3 191.84,-497.3 188.74,-494.2 188.74,-491.1 188.74,-491.1 188.74,-484.9 188.74,-484.9 188.74,-481.8 191.84,-478.7 194.94,-478.7 194.94,-478.7 272.58,-478.7 272.58,-478.7 275.68,-478.7 278.78,-481.8 278.78,-484.9 278.78,-484.9 278.78,-491.1 278.78,-491.1 278.78,-494.2 275.68,-497.3 272.58,-497.3"/>
<text text-anchor="middle" x="233.76" y="-485.3" font-family="Helvetica,sans-Serif" font-size="9.00">change&#45;greeting.js</text>
</a>
</g>
</g>
<!-- client/src/components/shared/input&#45;greeting.js&#45;&gt;client/src/handlers/change&#45;greeting.js -->
<g id="edge9" class="edge">
<title>client/src/components/shared/input&#45;greeting.js&#45;&gt;client/src/handlers/change&#45;greeting.js</title>
<path fill="none" stroke="#000000" stroke-width="2" stroke-opacity="0.200000" d="M212.46,-317.37C198.27,-325.07 181.28,-337.55 176,-355 170.98,-371.59 170.98,-416.41 176,-433 181.49,-451.13 197.61,-465.6 211.43,-475.13"/>
<polygon fill="#000000" fill-opacity="0.200000" stroke="#000000" stroke-width="2" stroke-opacity="0.200000" points="210.62,-477.11 216.78,-478.66 212.93,-473.61 210.62,-477.11"/>
</g>
<!-- client/src/logic/reverse.js -->
<g id="node12" class="node">
<title>client/src/logic/reverse.js</title>
<g id="a_node12"><a xlink:href="../client/src/logic/reverse.js" xlink:title="reverse.js">
<path fill="#ffffcc" stroke="black" d="M375.81,-558.3C375.81,-558.3 333.21,-558.3 333.21,-558.3 330.11,-558.3 327.01,-555.2 327.01,-552.1 327.01,-552.1 327.01,-545.9 327.01,-545.9 327.01,-542.8 330.11,-539.7 333.21,-539.7 333.21,-539.7 375.81,-539.7 375.81,-539.7 378.91,-539.7 382.01,-542.8 382.01,-545.9 382.01,-545.9 382.01,-552.1 382.01,-552.1 382.01,-555.2 378.91,-558.3 375.81,-558.3"/>
<text text-anchor="middle" x="354.51" y="-546.3" font-family="Helvetica,sans-Serif" font-size="9.00">reverse.js</text>
</a>
</g>
</g>
<!-- client/src/components/shared/input&#45;greeting.js&#45;&gt;client/src/logic/reverse.js -->
<g id="edge11" class="edge">
<title>client/src/components/shared/input&#45;greeting.js&#45;&gt;client/src/logic/reverse.js</title>
<path fill="none" stroke="#000000" stroke-width="2" stroke-opacity="0.200000" d="M265.58,-317.35C281.61,-323.76 300.18,-333.89 311.51,-349 333.64,-378.5 347.53,-491.97 351.96,-533.58"/>
<polygon fill="#000000" fill-opacity="0.200000" stroke="#000000" stroke-width="2" stroke-opacity="0.200000" points="349.88,-533.87 352.6,-539.62 354.06,-533.44 349.88,-533.87"/>
</g>
<!-- client/src/components/pages/quiz/index.js -->
<g id="node10" class="node">
<title>client/src/components/pages/quiz/index.js</title>
<g id="a_node10"><a xlink:href="../client/src/components/pages/quiz/index.js" xlink:title="index.js">
<path fill="#ffffcc" stroke="black" d="M157.8,-168.3C157.8,-168.3 116.2,-168.3 116.2,-168.3 113.1,-168.3 110,-165.2 110,-162.1 110,-162.1 110,-155.9 110,-155.9 110,-152.8 113.1,-149.7 116.2,-149.7 116.2,-149.7 157.8,-149.7 157.8,-149.7 160.9,-149.7 164,-152.8 164,-155.9 164,-155.9 164,-162.1 164,-162.1 164,-165.2 160.9,-168.3 157.8,-168.3"/>
<text text-anchor="middle" x="137" y="-156.3" font-family="Helvetica,sans-Serif" font-size="9.00">index.js</text>
</a>
</g>
</g>
<!-- client/src/components/pages/quiz/index.js&#45;&gt;client/src/components/shared/input&#45;greeting.js -->
<g id="edge8" class="edge">
<title>client/src/components/pages/quiz/index.js&#45;&gt;client/src/components/shared/input&#45;greeting.js</title>
<path fill="none" stroke="#000000" stroke-width="2" stroke-opacity="0.200000" d="M146.62,-168.39C153.82,-176.46 164.14,-188.57 172,-200 193.73,-231.6 214.65,-271.55 225.36,-292.91"/>
<polygon fill="#000000" fill-opacity="0.200000" stroke="#000000" stroke-width="2" stroke-opacity="0.200000" points="223.55,-293.98 228.1,-298.41 227.31,-292.11 223.55,-293.98"/>
</g>
<!-- client/src/handlers/change&#45;greeting.js&#45;&gt;client/src/init/state.js -->
<g id="edge12" class="edge">
<title>client/src/handlers/change&#45;greeting.js&#45;&gt;client/src/init/state.js</title>
<path fill="none" stroke="#000000" stroke-width="2" stroke-opacity="0.200000" d="M260.11,-478.63C277.55,-470.81 299.62,-457.86 311.51,-439 346.36,-383.74 352.32,-173.37 353.32,-113.8"/>
<polygon fill="#000000" fill-opacity="0.200000" stroke="#000000" stroke-width="2" stroke-opacity="0.200000" points="355.42,-113.64 353.41,-107.6 351.22,-113.57 355.42,-113.64"/>
</g>
<!-- client/src/handlers/change&#45;greeting.js&#45;&gt;client/src/logic/reverse.js -->
<g id="edge13" class="edge">
<title>client/src/handlers/change&#45;greeting.js&#45;&gt;client/src/logic/reverse.js</title>
<path fill="none" stroke="#000000" stroke-width="2" stroke-opacity="0.200000" d="M253.05,-497.4C273.68,-508 307.3,-525.26 329.9,-536.87"/>
<polygon fill="#000000" fill-opacity="0.200000" stroke="#000000" stroke-width="2" stroke-opacity="0.200000" points="329.09,-538.82 335.39,-539.69 331.01,-535.08 329.09,-538.82"/>
</g>
<!-- client/src/init/index.js -->
<g id="node13" class="node">
<title>client/src/init/index.js</title>
<g id="a_node13"><a xlink:href="../client/src/init/index.js" xlink:title="index.js">
<path fill="#ffffcc" stroke="black" d="M375.31,-76.3C375.31,-76.3 333.71,-76.3 333.71,-76.3 330.61,-76.3 327.51,-73.2 327.51,-70.1 327.51,-70.1 327.51,-63.9 327.51,-63.9 327.51,-60.8 330.61,-57.7 333.71,-57.7 333.71,-57.7 375.31,-57.7 375.31,-57.7 378.41,-57.7 381.51,-60.8 381.51,-63.9 381.51,-63.9 381.51,-70.1 381.51,-70.1 381.51,-73.2 378.41,-76.3 375.31,-76.3"/>
<text text-anchor="middle" x="354.51" y="-64.3" font-family="Helvetica,sans-Serif" font-size="9.00">index.js</text>
</a>
</g>
</g>
<!-- client/src/init/router.js -->
<g id="node14" class="node">
<title>client/src/init/router.js</title>
<g id="a_node14"><a xlink:href="../client/src/init/router.js" xlink:title="router.js">
<path fill="#ffffcc" stroke="black" d="M445.81,-76.3C445.81,-76.3 404.21,-76.3 404.21,-76.3 401.11,-76.3 398.01,-73.2 398.01,-70.1 398.01,-70.1 398.01,-63.9 398.01,-63.9 398.01,-60.8 401.11,-57.7 404.21,-57.7 404.21,-57.7 445.81,-57.7 445.81,-57.7 448.91,-57.7 452.01,-60.8 452.01,-63.9 452.01,-63.9 452.01,-70.1 452.01,-70.1 452.01,-73.2 448.91,-76.3 445.81,-76.3"/>
<text text-anchor="middle" x="425.01" y="-64.3" font-family="Helvetica,sans-Serif" font-size="9.00">router.js</text>
</a>
</g>
</g>
<!-- client/src/init/index.js&#45;&gt;client/src/init/router.js -->
<g id="edge14" class="edge">
<title>client/src/init/index.js&#45;&gt;client/src/init/router.js</title>
<path fill="none" stroke="#000000" stroke-width="2" stroke-opacity="0.200000" d="M381.8,-67C385.1,-67 388.51,-67 391.89,-67"/>
<polygon fill="#000000" fill-opacity="0.200000" stroke="#000000" stroke-width="2" stroke-opacity="0.200000" points="391.91,-69.1 397.91,-67 391.91,-64.9 391.91,-69.1"/>
</g>
<!-- client/src/routes.js -->
<g id="node15" class="node">
<title>client/src/routes.js</title>
<g id="a_node15"><a xlink:href="../client/src/routes.js" xlink:title="routes.js">
<path fill="#ffffcc" stroke="black" d="M71.8,-168.3C71.8,-168.3 30.2,-168.3 30.2,-168.3 27.1,-168.3 24,-165.2 24,-162.1 24,-162.1 24,-155.9 24,-155.9 24,-152.8 27.1,-149.7 30.2,-149.7 30.2,-149.7 71.8,-149.7 71.8,-149.7 74.9,-149.7 78,-152.8 78,-155.9 78,-155.9 78,-162.1 78,-162.1 78,-165.2 74.9,-168.3 71.8,-168.3"/>
<text text-anchor="middle" x="51" y="-156.3" font-family="Helvetica,sans-Serif" font-size="9.00">routes.js</text>
</a>
</g>
</g>
<!-- client/src/init/router.js&#45;&gt;client/src/routes.js -->
<g id="edge15" class="edge">
<title>client/src/init/router.js&#45;&gt;client/src/routes.js</title>
<path fill="none" stroke="#000000" stroke-width="2" stroke-opacity="0.200000" d="M403.8,-57.56C346.8,-32.51 182.71,28.77 86,-47 56.34,-70.24 51.81,-118.57 51.56,-143.46"/>
<polygon fill="#000000" fill-opacity="0.200000" stroke="#000000" stroke-width="2" stroke-opacity="0.200000" points="49.46,-143.54 51.59,-149.53 53.66,-143.52 49.46,-143.54"/>
</g>
<!-- client/src/routes.js&#45;&gt;client/src/components/layout/page.js -->
<g id="edge17" class="edge">
<title>client/src/routes.js&#45;&gt;client/src/components/layout/page.js</title>
<path fill="none" stroke="#000000" stroke-width="2" stroke-opacity="0.200000" d="M54.88,-168.49C60.39,-186.38 73.03,-226.27 86,-259 99.7,-293.58 118.41,-333.04 128.62,-354.02"/>
<polygon fill="#000000" fill-opacity="0.200000" stroke="#000000" stroke-width="2" stroke-opacity="0.200000" points="126.74,-354.96 131.26,-359.43 130.51,-353.11 126.74,-354.96"/>
</g>
<!-- client/src/routes.js&#45;&gt;client/src/components/pages/home/index.js -->
<g id="edge18" class="edge">
<title>client/src/routes.js&#45;&gt;client/src/components/pages/home/index.js</title>
<path fill="none" stroke="#000000" stroke-width="2" stroke-opacity="0.200000" d="M62.3,-149.68C77.04,-136.35 104.22,-111.75 121.14,-96.45"/>
<polygon fill="#000000" fill-opacity="0.200000" stroke="#000000" stroke-width="2" stroke-opacity="0.200000" points="122.58,-97.98 125.62,-92.4 119.76,-94.86 122.58,-97.98"/>
</g>
<!-- client/src/routes.js&#45;&gt;client/src/components/pages/questions/index.js -->
<g id="edge19" class="edge">
<title>client/src/routes.js&#45;&gt;client/src/components/pages/questions/index.js</title>
<path fill="none" stroke="#000000" stroke-width="2" stroke-opacity="0.200000" d="M58.34,-168.4C64.56,-177.03 74.71,-189.7 86,-198 91.5,-202.04 97.86,-205.55 104.16,-208.51"/>
<polygon fill="#000000" fill-opacity="0.200000" stroke="#000000" stroke-width="2" stroke-opacity="0.200000" points="103.57,-210.54 109.9,-211.07 105.27,-206.71 103.57,-210.54"/>
</g>
<!-- client/src/routes.js&#45;&gt;client/src/components/pages/quiz/index.js -->
<g id="edge20" class="edge">
<title>client/src/routes.js&#45;&gt;client/src/components/pages/quiz/index.js</title>
<path fill="none" stroke="#000000" stroke-width="2" stroke-opacity="0.200000" d="M78.12,-159C86.18,-159 95.15,-159 103.58,-159"/>
<polygon fill="#000000" fill-opacity="0.200000" stroke="#000000" stroke-width="2" stroke-opacity="0.200000" points="103.9,-161.1 109.9,-159 103.9,-156.9 103.9,-161.1"/>
</g>
<!-- client/src/logic/reverse.spec.js -->
<g id="node16" class="node">
<title>client/src/logic/reverse.spec.js</title>
<g id="a_node16"><a xlink:href="../client/src/logic/reverse.spec.js" xlink:title="reverse.spec.js">
<path fill="#ffffcc" stroke="black" d="M265.56,-558.3C265.56,-558.3 201.95,-558.3 201.95,-558.3 198.85,-558.3 195.75,-555.2 195.75,-552.1 195.75,-552.1 195.75,-545.9 195.75,-545.9 195.75,-542.8 198.85,-539.7 201.95,-539.7 201.95,-539.7 265.56,-539.7 265.56,-539.7 268.66,-539.7 271.77,-542.8 271.77,-545.9 271.77,-545.9 271.77,-552.1 271.77,-552.1 271.77,-555.2 268.66,-558.3 265.56,-558.3"/>
<text text-anchor="middle" x="233.76" y="-546.3" font-family="Helvetica,sans-Serif" font-size="9.00">reverse.spec.js</text>
</a>
</g>
</g>
<!-- client/src/logic/reverse.spec.js&#45;&gt;client/src/logic/reverse.js -->
<g id="edge16" class="edge">
<title>client/src/logic/reverse.spec.js&#45;&gt;client/src/logic/reverse.js</title>
<path fill="none" stroke="#000000" stroke-width="2" stroke-opacity="0.200000" d="M272.01,-549C287.6,-549 305.57,-549 320.66,-549"/>
<polygon fill="#000000" fill-opacity="0.200000" stroke="#000000" stroke-width="2" stroke-opacity="0.200000" points="320.94,-551.1 326.94,-549 320.94,-546.9 320.94,-551.1"/>
</g>
</g>
</svg>
