<?xml version="1.0" encoding="UTF-8" standalone="no"?>
<!DOCTYPE svg PUBLIC "-//W3C//DTD SVG 1.1//EN"
 "http://www.w3.org/Graphics/SVG/1.1/DTD/svg11.dtd">
<!-- Generated by graphviz version 2.44.0 (20200408.0750)
 -->
<!-- Title: dependency&#45;cruiser output Pages: 1 -->
<svg width="492pt" height="660pt"
 viewBox="0.00 0.00 492.01 660.32" xmlns="http://www.w3.org/2000/svg" xmlns:xlink="http://www.w3.org/1999/xlink">
<g id="graph0" class="graph" transform="scale(1 1) rotate(0) translate(4 656.32)">
<title>dependency&#45;cruiser output</title>
<polygon fill="white" stroke="transparent" points="-4,4 -4,-656.32 488.01,-656.32 488.01,4 -4,4"/>
<g id="clust1" class="cluster">
<title>cluster_client</title>
<path fill="#ffffff" stroke="black" stroke-width="2" d="M20,-13.32C20,-13.32 464.01,-13.32 464.01,-13.32 470.01,-13.32 476.01,-19.32 476.01,-25.32 476.01,-25.32 476.01,-632.32 476.01,-632.32 476.01,-638.32 470.01,-644.32 464.01,-644.32 464.01,-644.32 20,-644.32 20,-644.32 14,-644.32 8,-638.32 8,-632.32 8,-632.32 8,-25.32 8,-25.32 8,-19.32 14,-13.32 20,-13.32"/>
<text text-anchor="middle" x="242.01" y="-632.22" font-family="Helvetica,sans-Serif" font-weight="bold" font-size="9.00">client</text>
</g>
<g id="clust2" class="cluster">
<title>cluster_client/src</title>
<path fill="#ffffff" stroke="black" stroke-width="2" d="M28,-21.32C28,-21.32 456.01,-21.32 456.01,-21.32 462.01,-21.32 468.01,-27.32 468.01,-33.32 468.01,-33.32 468.01,-605.32 468.01,-605.32 468.01,-611.32 462.01,-617.32 456.01,-617.32 456.01,-617.32 28,-617.32 28,-617.32 22,-617.32 16,-611.32 16,-605.32 16,-605.32 16,-33.32 16,-33.32 16,-27.32 22,-21.32 28,-21.32"/>
<text text-anchor="middle" x="242.01" y="-605.22" font-family="Helvetica,sans-Serif" font-weight="bold" font-size="9.00">src</text>
</g>
<g id="clust3" class="cluster">
<title>cluster_client/src/components</title>
<path fill="#ffffff" stroke="black" stroke-width="2" d="M98,-100.32C98,-100.32 299.51,-100.32 299.51,-100.32 305.51,-100.32 311.51,-106.32 311.51,-112.32 311.51,-112.32 311.51,-517.32 311.51,-517.32 311.51,-523.32 305.51,-529.32 299.51,-529.32 299.51,-529.32 98,-529.32 98,-529.32 92,-529.32 86,-523.32 86,-517.32 86,-517.32 86,-112.32 86,-112.32 86,-106.32 92,-100.32 98,-100.32"/>
<text text-anchor="middle" x="198.76" y="-517.22" font-family="Helvetica,sans-Serif" font-weight="bold" font-size="9.00">components</text>
</g>
<g id="clust4" class="cluster">
<title>cluster_client/src/components/layout</title>
<path fill="#ffffff" stroke="black" stroke-width="2" d="M114,-418.32C114,-418.32 256.76,-418.32 256.76,-418.32 262.76,-418.32 268.76,-424.32 268.76,-430.32 268.76,-430.32 268.76,-490.32 268.76,-490.32 268.76,-496.32 262.76,-502.32 256.76,-502.32 256.76,-502.32 114,-502.32 114,-502.32 108,-502.32 102,-496.32 102,-490.32 102,-490.32 102,-430.32 102,-430.32 102,-424.32 108,-418.32 114,-418.32"/>
<text text-anchor="middle" x="185.38" y="-490.22" font-family="Helvetica,sans-Serif" font-weight="bold" font-size="9.00">layout</text>
</g>
<g id="clust5" class="cluster">
<title>cluster_client/src/components/pages</title>
<path fill="#ffffff" stroke="black" stroke-width="2" d="M106,-108.32C106,-108.32 291.51,-108.32 291.51,-108.32 297.51,-108.32 303.51,-114.32 303.51,-120.32 303.51,-120.32 303.51,-337.32 303.51,-337.32 303.51,-343.32 297.51,-349.32 291.51,-349.32 291.51,-349.32 106,-349.32 106,-349.32 100,-349.32 94,-343.32 94,-337.32 94,-337.32 94,-120.32 94,-120.32 94,-114.32 100,-108.32 106,-108.32"/>
<text text-anchor="middle" x="198.76" y="-337.22" font-family="Helvetica,sans-Serif" font-weight="bold" font-size="9.00">pages</text>
</g>
<g id="clust6" class="cluster">
<title>cluster_client/src/components/pages/home</title>
<path fill="#ffffff" stroke="black" stroke-width="2" d="M114,-116.32C114,-116.32 283.51,-116.32 283.51,-116.32 289.51,-116.32 295.51,-122.32 295.51,-128.32 295.51,-128.32 295.51,-188.32 295.51,-188.32 295.51,-194.32 289.51,-200.32 283.51,-200.32 283.51,-200.32 114,-200.32 114,-200.32 108,-200.32 102,-194.32 102,-188.32 102,-188.32 102,-128.32 102,-128.32 102,-122.32 108,-116.32 114,-116.32"/>
<text text-anchor="middle" x="198.76" y="-188.22" font-family="Helvetica,sans-Serif" font-weight="bold" font-size="9.00">home</text>
</g>
<g id="clust7" class="cluster">
<title>cluster_client/src/components/pages/questions</title>
<path fill="#ffffff" stroke="black" stroke-width="2" d="M114,-269.32C114,-269.32 160,-269.32 160,-269.32 166,-269.32 172,-275.32 172,-281.32 172,-281.32 172,-310.32 172,-310.32 172,-316.32 166,-322.32 160,-322.32 160,-322.32 114,-322.32 114,-322.32 108,-322.32 102,-316.32 102,-310.32 102,-310.32 102,-281.32 102,-281.32 102,-275.32 108,-269.32 114,-269.32"/>
<text text-anchor="middle" x="137" y="-310.22" font-family="Helvetica,sans-Serif" font-weight="bold" font-size="9.00">questions</text>
</g>
<g id="clust8" class="cluster">
<title>cluster_client/src/components/pages/quiz</title>
<path fill="#ffffff" stroke="black" stroke-width="2" d="M114,-208.32C114,-208.32 160,-208.32 160,-208.32 166,-208.32 172,-214.32 172,-220.32 172,-220.32 172,-249.32 172,-249.32 172,-255.32 166,-261.32 160,-261.32 160,-261.32 114,-261.32 114,-261.32 108,-261.32 102,-255.32 102,-249.32 102,-249.32 102,-220.32 102,-220.32 102,-214.32 108,-208.32 114,-208.32"/>
<text text-anchor="middle" x="137" y="-249.22" font-family="Helvetica,sans-Serif" font-weight="bold" font-size="9.00">quiz</text>
</g>
<g id="clust9" class="cluster">
<title>cluster_client/src/components/shared</title>
<path fill="#ffffff" stroke="black" stroke-width="2" d="M197.75,-357.32C197.75,-357.32 269.76,-357.32 269.76,-357.32 275.76,-357.32 281.76,-363.32 281.76,-369.32 281.76,-369.32 281.76,-398.32 281.76,-398.32 281.76,-404.32 275.76,-410.32 269.76,-410.32 269.76,-410.32 197.75,-410.32 197.75,-410.32 191.75,-410.32 185.75,-404.32 185.75,-398.32 185.75,-398.32 185.75,-369.32 185.75,-369.32 185.75,-363.32 191.75,-357.32 197.75,-357.32"/>
<text text-anchor="middle" x="233.76" y="-398.22" font-family="Helvetica,sans-Serif" font-weight="bold" font-size="9.00">shared</text>
</g>
<g id="clust10" class="cluster">
<title>cluster_client/src/handlers</title>
<path fill="#ffffff" stroke="black" stroke-width="2" d="M192.75,-537.32C192.75,-537.32 274.77,-537.32 274.77,-537.32 280.77,-537.32 286.77,-543.32 286.77,-549.32 286.77,-549.32 286.77,-578.32 286.77,-578.32 286.77,-584.32 280.77,-590.32 274.77,-590.32 274.77,-590.32 192.75,-590.32 192.75,-590.32 186.75,-590.32 180.75,-584.32 180.75,-578.32 180.75,-578.32 180.75,-549.32 180.75,-549.32 180.75,-543.32 186.75,-537.32 192.75,-537.32"/>
<text text-anchor="middle" x="233.76" y="-578.22" font-family="Helvetica,sans-Serif" font-weight="bold" font-size="9.00">handlers</text>
</g>
<g id="clust11" class="cluster">
<title>cluster_client/src/init</title>
<path fill="#ffffff" stroke="black" stroke-width="2" d="M331.51,-326.32C331.51,-326.32 448.01,-326.32 448.01,-326.32 454.01,-326.32 460.01,-332.32 460.01,-338.32 460.01,-338.32 460.01,-398.32 460.01,-398.32 460.01,-404.32 454.01,-410.32 448.01,-410.32 448.01,-410.32 331.51,-410.32 331.51,-410.32 325.51,-410.32 319.51,-404.32 319.51,-398.32 319.51,-398.32 319.51,-338.32 319.51,-338.32 319.51,-332.32 325.51,-326.32 331.51,-326.32"/>
<text text-anchor="middle" x="389.76" y="-398.22" font-family="Helvetica,sans-Serif" font-weight="bold" font-size="9.00">init</text>
</g>
<g id="clust12" class="cluster">
<title>cluster_client/src/logic</title>
<path fill="#ffffff" stroke="black" stroke-width="2" d="M199.5,-39.32C199.5,-39.32 378.01,-39.32 378.01,-39.32 384.01,-39.32 390.01,-45.32 390.01,-51.32 390.01,-51.32 390.01,-80.32 390.01,-80.32 390.01,-86.32 384.01,-92.32 378.01,-92.32 378.01,-92.32 199.5,-92.32 199.5,-92.32 193.5,-92.32 187.5,-86.32 187.5,-80.32 187.5,-80.32 187.5,-51.32 187.5,-51.32 187.5,-45.32 193.5,-39.32 199.5,-39.32"/>
<text text-anchor="middle" x="288.76" y="-80.22" font-family="Helvetica,sans-Serif" font-weight="bold" font-size="9.00">logic</text>
</g>
<!-- client/src/components/layout/footer.js -->
<g id="node1" class="node">
<title>client/src/components/layout/footer.js</title>
<g id="a_node1"><a xlink:href="../client/src/components/layout/footer.js" xlink:title="footer.js">
<path fill="#ffffcc" stroke="black" d="M254.56,-444.62C254.56,-444.62 212.96,-444.62 212.96,-444.62 209.86,-444.62 206.76,-441.52 206.76,-438.42 206.76,-438.42 206.76,-432.22 206.76,-432.22 206.76,-429.12 209.86,-426.02 212.96,-426.02 212.96,-426.02 254.56,-426.02 254.56,-426.02 257.66,-426.02 260.76,-429.12 260.76,-432.22 260.76,-432.22 260.76,-438.42 260.76,-438.42 260.76,-441.52 257.66,-444.62 254.56,-444.62"/>
<text text-anchor="middle" x="233.76" y="-432.62" font-family="Helvetica,sans-Serif" font-size="9.00">footer.js</text>
</a>
</g>
</g>
<!-- client/src/components/layout/navbar.js -->
<g id="node2" class="node">
<title>client/src/components/layout/navbar.js</title>
<g id="a_node2"><a xlink:href="../client/src/components/layout/navbar.js" xlink:title="navbar.js">
<path fill="#ffffcc" stroke="black" d="M254.56,-475.62C254.56,-475.62 212.96,-475.62 212.96,-475.62 209.86,-475.62 206.76,-472.52 206.76,-469.42 206.76,-469.42 206.76,-463.22 206.76,-463.22 206.76,-460.12 209.86,-457.02 212.96,-457.02 212.96,-457.02 254.56,-457.02 254.56,-457.02 257.66,-457.02 260.76,-460.12 260.76,-463.22 260.76,-463.22 260.76,-469.42 260.76,-469.42 260.76,-472.52 257.66,-475.62 254.56,-475.62"/>
<text text-anchor="middle" x="233.76" y="-463.62" font-family="Helvetica,sans-Serif" font-size="9.00">navbar.js</text>
</a>
</g>
</g>
<!-- client/src/components/layout/page.js -->
<g id="node3" class="node">
<title>client/src/components/layout/page.js</title>
<g id="a_node3"><a xlink:href="../client/src/components/layout/page.js" xlink:title="page.js">
<path fill="#ffffcc" stroke="black" d="M157.8,-444.62C157.8,-444.62 116.2,-444.62 116.2,-444.62 113.1,-444.62 110,-441.52 110,-438.42 110,-438.42 110,-432.22 110,-432.22 110,-429.12 113.1,-426.02 116.2,-426.02 116.2,-426.02 157.8,-426.02 157.8,-426.02 160.9,-426.02 164,-429.12 164,-432.22 164,-432.22 164,-438.42 164,-438.42 164,-441.52 160.9,-444.62 157.8,-444.62"/>
<text text-anchor="middle" x="137" y="-432.62" font-family="Helvetica,sans-Serif" font-size="9.00">page.js</text>
</a>
</g>
</g>
<!-- client/src/components/layout/page.js&#45;&gt;client/src/components/layout/footer.js -->
<g id="edge1" class="edge">
<title>client/src/components/layout/page.js&#45;&gt;client/src/components/layout/footer.js</title>
<path fill="none" stroke="#000000" stroke-width="2" stroke-opacity="0.200000" d="M164.14,-435.32C175.43,-435.32 188.75,-435.32 200.63,-435.32"/>
<polygon fill="#000000" fill-opacity="0.200000" stroke="#000000" stroke-width="2" stroke-opacity="0.200000" points="200.7,-437.42 206.7,-435.32 200.7,-433.22 200.7,-437.42"/>
</g>
<!-- client/src/components/layout/page.js&#45;&gt;client/src/components/layout/navbar.js -->
<g id="edge2" class="edge">
<title>client/src/components/layout/page.js&#45;&gt;client/src/components/layout/navbar.js</title>
<path fill="none" stroke="#000000" stroke-width="2" stroke-opacity="0.200000" d="M163.7,-444.72C169.07,-446.62 174.71,-448.57 180,-450.32 186.61,-452.5 193.72,-454.74 200.52,-456.82"/>
<polygon fill="#000000" fill-opacity="0.200000" stroke="#000000" stroke-width="2" stroke-opacity="0.200000" points="200.3,-458.94 206.65,-458.68 201.52,-454.92 200.3,-458.94"/>
</g>
<!-- client/src/components/pages/home/index.js -->
<g id="node4" class="node">
<title>client/src/components/pages/home/index.js</title>
<g id="a_node4"><a xlink:href="../client/src/components/pages/home/index.js" xlink:title="index.js">
<path fill="#ffffcc" stroke="black" d="M157.8,-173.62C157.8,-173.62 116.2,-173.62 116.2,-173.62 113.1,-173.62 110,-170.52 110,-167.42 110,-167.42 110,-161.22 110,-161.22 110,-158.12 113.1,-155.02 116.2,-155.02 116.2,-155.02 157.8,-155.02 157.8,-155.02 160.9,-155.02 164,-158.12 164,-161.22 164,-161.22 164,-167.42 164,-167.42 164,-170.52 160.9,-173.62 157.8,-173.62"/>
<text text-anchor="middle" x="137" y="-161.62" font-family="Helvetica,sans-Serif" font-size="9.00">index.js</text>
</a>
</g>
</g>
<!-- client/src/components/pages/home/instructions.js -->
<g id="node5" class="node">
<title>client/src/components/pages/home/instructions.js</title>
<g id="a_node5"><a xlink:href="../client/src/components/pages/home/instructions.js" xlink:title="instructions.js">
<path fill="#ffffcc" stroke="black" d="M262.56,-142.62C262.56,-142.62 204.95,-142.62 204.95,-142.62 201.85,-142.62 198.75,-139.52 198.75,-136.42 198.75,-136.42 198.75,-130.22 198.75,-130.22 198.75,-127.12 201.85,-124.02 204.95,-124.02 204.95,-124.02 262.56,-124.02 262.56,-124.02 265.66,-124.02 268.76,-127.12 268.76,-130.22 268.76,-130.22 268.76,-136.42 268.76,-136.42 268.76,-139.52 265.66,-142.62 262.56,-142.62"/>
<text text-anchor="middle" x="233.76" y="-130.62" font-family="Helvetica,sans-Serif" font-size="9.00">instructions.js</text>
</a>
</g>
</g>
<!-- client/src/components/pages/home/index.js&#45;&gt;client/src/components/pages/home/instructions.js -->
<g id="edge3" class="edge">
<title>client/src/components/pages/home/index.js&#45;&gt;client/src/components/pages/home/instructions.js</title>
<path fill="none" stroke="#000000" stroke-width="2" stroke-opacity="0.200000" d="M163.7,-154.92C169.07,-153.02 174.71,-151.07 180,-149.32 184.9,-147.71 190.07,-146.06 195.19,-144.47"/>
<polygon fill="#000000" fill-opacity="0.200000" stroke="#000000" stroke-width="2" stroke-opacity="0.200000" points="196.04,-146.41 201.15,-142.63 194.8,-142.39 196.04,-146.41"/>
</g>
<!-- client/src/components/pages/home/number&#45;of&#45;questions.js -->
<g id="node6" class="node">
<title>client/src/components/pages/home/number&#45;of&#45;questions.js</title>
<g id="a_node6"><a xlink:href="../client/src/components/pages/home/number-of-questions.js" xlink:title="number&#45;of&#45;questions.js">
<path fill="#ffffcc" stroke="black" d="M281.07,-173.62C281.07,-173.62 186.44,-173.62 186.44,-173.62 183.34,-173.62 180.24,-170.52 180.24,-167.42 180.24,-167.42 180.24,-161.22 180.24,-161.22 180.24,-158.12 183.34,-155.02 186.44,-155.02 186.44,-155.02 281.07,-155.02 281.07,-155.02 284.17,-155.02 287.27,-158.12 287.27,-161.22 287.27,-161.22 287.27,-167.42 287.27,-167.42 287.27,-170.52 284.17,-173.62 281.07,-173.62"/>
<text text-anchor="middle" x="233.76" y="-161.62" font-family="Helvetica,sans-Serif" font-size="9.00">number&#45;of&#45;questions.js</text>
</a>
</g>
</g>
<!-- client/src/components/pages/home/index.js&#45;&gt;client/src/components/pages/home/number&#45;of&#45;questions.js -->
<g id="edge4" class="edge">
<title>client/src/components/pages/home/index.js&#45;&gt;client/src/components/pages/home/number&#45;of&#45;questions.js</title>
<path fill="none" stroke="#000000" stroke-width="2" stroke-opacity="0.200000" d="M164.14,-164.32C167.29,-164.32 170.6,-164.32 173.99,-164.32"/>
<polygon fill="#000000" fill-opacity="0.200000" stroke="#000000" stroke-width="2" stroke-opacity="0.200000" points="174.17,-166.42 180.17,-164.32 174.17,-162.22 174.17,-166.42"/>
</g>
<!-- client/src/components/pages/questions/index.js -->
<g id="node7" class="node">
<title>client/src/components/pages/questions/index.js</title>
<g id="a_node7"><a xlink:href="../client/src/components/pages/questions/index.js" xlink:title="index.js">
<path fill="#ffffcc" stroke="black" d="M157.8,-295.62C157.8,-295.62 116.2,-295.62 116.2,-295.62 113.1,-295.62 110,-292.52 110,-289.42 110,-289.42 110,-283.22 110,-283.22 110,-280.12 113.1,-277.02 116.2,-277.02 116.2,-277.02 157.8,-277.02 157.8,-277.02 160.9,-277.02 164,-280.12 164,-283.22 164,-283.22 164,-289.42 164,-289.42 164,-292.52 160.9,-295.62 157.8,-295.62"/>
<text text-anchor="middle" x="137" y="-283.62" font-family="Helvetica,sans-Serif" font-size="9.00">index.js</text>
</a>
</g>
</g>
<!-- client/src/components/shared/input&#45;greeting.js -->
<g id="node8" class="node">
<title>client/src/components/shared/input&#45;greeting.js</title>
<g id="a_node8"><a xlink:href="../client/src/components/shared/input-greeting.js" xlink:title="input&#45;greeting.js">
<path fill="#ffffcc" stroke="black" d="M267.57,-383.62C267.57,-383.62 199.95,-383.62 199.95,-383.62 196.85,-383.62 193.74,-380.52 193.74,-377.42 193.74,-377.42 193.74,-371.22 193.74,-371.22 193.74,-368.12 196.85,-365.02 199.95,-365.02 199.95,-365.02 267.57,-365.02 267.57,-365.02 270.67,-365.02 273.77,-368.12 273.77,-371.22 273.77,-371.22 273.77,-377.42 273.77,-377.42 273.77,-380.52 270.67,-383.62 267.57,-383.62"/>
<text text-anchor="middle" x="233.76" y="-371.62" font-family="Helvetica,sans-Serif" font-size="9.00">input&#45;greeting.js</text>
</a>
</g>
</g>
<!-- client/src/components/pages/questions/index.js&#45;&gt;client/src/components/shared/input&#45;greeting.js -->
<g id="edge5" class="edge">
<title>client/src/components/pages/questions/index.js&#45;&gt;client/src/components/shared/input&#45;greeting.js</title>
<path fill="none" stroke="#000000" stroke-width="2" stroke-opacity="0.200000" d="M148.14,-295.74C164.95,-311.35 198.67,-342.66 218.08,-360.69"/>
<polygon fill="#000000" fill-opacity="0.200000" stroke="#000000" stroke-width="2" stroke-opacity="0.200000" points="216.86,-362.43 222.69,-364.97 219.72,-359.35 216.86,-362.43"/>
</g>
<!-- client/src/handlers/change&#45;greeting.js -->
<g id="node10" class="node">
<title>client/src/handlers/change&#45;greeting.js</title>
<g id="a_node10"><a xlink:href="../client/src/handlers/change-greeting.js" xlink:title="change&#45;greeting.js">
<path fill="#ffffcc" stroke="black" d="M272.58,-563.62C272.58,-563.62 194.94,-563.62 194.94,-563.62 191.84,-563.62 188.74,-560.52 188.74,-557.42 188.74,-557.42 188.74,-551.22 188.74,-551.22 188.74,-548.12 191.84,-545.02 194.94,-545.02 194.94,-545.02 272.58,-545.02 272.58,-545.02 275.68,-545.02 278.78,-548.12 278.78,-551.22 278.78,-551.22 278.78,-557.42 278.78,-557.42 278.78,-560.52 275.68,-563.62 272.58,-563.62"/>
<text text-anchor="middle" x="233.76" y="-551.62" font-family="Helvetica,sans-Serif" font-size="9.00">change&#45;greeting.js</text>
</a>
</g>
</g>
<!-- client/src/components/shared/input&#45;greeting.js&#45;&gt;client/src/handlers/change&#45;greeting.js -->
<g id="edge7" class="edge">
<title>client/src/components/shared/input&#45;greeting.js&#45;&gt;client/src/handlers/change&#45;greeting.js</title>
<path fill="none" stroke="#000000" stroke-width="2" stroke-opacity="0.200000" d="M212.46,-383.69C198.27,-391.39 181.28,-403.88 176,-421.32 170.98,-437.91 170.98,-482.73 176,-499.32 181.49,-517.46 197.61,-531.92 211.43,-541.45"/>
<polygon fill="#000000" fill-opacity="0.200000" stroke="#000000" stroke-width="2" stroke-opacity="0.200000" points="210.62,-543.43 216.78,-544.99 212.93,-539.93 210.62,-543.43"/>
</g>
<!-- client/src/init/state.js -->
<g id="node11" class="node">
<title>client/src/init/state.js</title>
<g id="a_node11"><a xlink:href="../client/src/init/state.js" xlink:title="state.js">
<path fill="#ffffcc" stroke="black" d="M375.31,-383.62C375.31,-383.62 333.71,-383.62 333.71,-383.62 330.61,-383.62 327.51,-380.52 327.51,-377.42 327.51,-377.42 327.51,-371.22 327.51,-371.22 327.51,-368.12 330.61,-365.02 333.71,-365.02 333.71,-365.02 375.31,-365.02 375.31,-365.02 378.41,-365.02 381.51,-368.12 381.51,-371.22 381.51,-371.22 381.51,-377.42 381.51,-377.42 381.51,-380.52 378.41,-383.62 375.31,-383.62"/>
<text text-anchor="middle" x="354.51" y="-371.62" font-family="Helvetica,sans-Serif" font-size="9.00">state.js</text>
</a>
</g>
</g>
<!-- client/src/components/shared/input&#45;greeting.js&#45;&gt;client/src/init/state.js -->
<g id="edge8" class="edge">
<title>client/src/components/shared/input&#45;greeting.js&#45;&gt;client/src/init/state.js</title>
<path fill="none" stroke="#000000" stroke-width="2" stroke-opacity="0.200000" d="M273.97,-374.32C289.34,-374.32 306.76,-374.32 321.36,-374.32"/>
<polygon fill="#000000" fill-opacity="0.200000" stroke="#000000" stroke-width="2" stroke-opacity="0.200000" points="321.44,-376.42 327.44,-374.32 321.44,-372.22 321.44,-376.42"/>
</g>
<!-- client/src/logic/reverse.js -->
<g id="node12" class="node">
<title>client/src/logic/reverse.js</title>
<g id="a_node12"><a xlink:href="../client/src/logic/reverse.js" xlink:title="reverse.js">
<path fill="#ffffcc" stroke="black" d="M375.81,-65.62C375.81,-65.62 333.21,-65.62 333.21,-65.62 330.11,-65.62 327.01,-62.52 327.01,-59.42 327.01,-59.42 327.01,-53.22 327.01,-53.22 327.01,-50.12 330.11,-47.02 333.21,-47.02 333.21,-47.02 375.81,-47.02 375.81,-47.02 378.91,-47.02 382.01,-50.12 382.01,-53.22 382.01,-53.22 382.01,-59.42 382.01,-59.42 382.01,-62.52 378.91,-65.62 375.81,-65.62"/>
<text text-anchor="middle" x="354.51" y="-53.62" font-family="Helvetica,sans-Serif" font-size="9.00">reverse.js</text>
</a>
</g>
</g>
<!-- client/src/components/shared/input&#45;greeting.js&#45;&gt;client/src/logic/reverse.js -->
<g id="edge9" class="edge">
<title>client/src/components/shared/input&#45;greeting.js&#45;&gt;client/src/logic/reverse.js</title>
<path fill="none" stroke="#000000" stroke-width="2" stroke-opacity="0.200000" d="M239.58,-364.88C252.48,-339.35 288.41,-266.6 311.51,-203.32 328.71,-156.24 343.39,-98.62 349.91,-71.64"/>
<polygon fill="#000000" fill-opacity="0.200000" stroke="#000000" stroke-width="2" stroke-opacity="0.200000" points="351.96,-72.08 351.32,-65.76 347.88,-71.1 351.96,-72.08"/>
</g>
<!-- client/src/components/pages/quiz/index.js -->
<g id="node9" class="node">
<title>client/src/components/pages/quiz/index.js</title>
<g id="a_node9"><a xlink:href="../client/src/components/pages/quiz/index.js" xlink:title="index.js">
<path fill="#ffffcc" stroke="black" d="M157.8,-234.62C157.8,-234.62 116.2,-234.62 116.2,-234.62 113.1,-234.62 110,-231.52 110,-228.42 110,-228.42 110,-222.22 110,-222.22 110,-219.12 113.1,-216.02 116.2,-216.02 116.2,-216.02 157.8,-216.02 157.8,-216.02 160.9,-216.02 164,-219.12 164,-222.22 164,-222.22 164,-228.42 164,-228.42 164,-231.52 160.9,-234.62 157.8,-234.62"/>
<text text-anchor="middle" x="137" y="-222.62" font-family="Helvetica,sans-Serif" font-size="9.00">index.js</text>
</a>
</g>
</g>
<!-- client/src/components/pages/quiz/index.js&#45;&gt;client/src/components/shared/input&#45;greeting.js -->
<g id="edge6" class="edge">
<title>client/src/components/pages/quiz/index.js&#45;&gt;client/src/components/shared/input&#45;greeting.js</title>
<path fill="none" stroke="#000000" stroke-width="2" stroke-opacity="0.200000" d="M146.62,-234.71C153.82,-242.78 164.14,-254.89 172,-266.32 193.73,-297.92 214.65,-337.87 225.36,-359.23"/>
<polygon fill="#000000" fill-opacity="0.200000" stroke="#000000" stroke-width="2" stroke-opacity="0.200000" points="223.55,-360.3 228.1,-364.74 227.31,-358.43 223.55,-360.3"/>
</g>
<!-- client/src/handlers/change&#45;greeting.js&#45;&gt;client/src/init/state.js -->
<g id="edge10" class="edge">
<title>client/src/handlers/change&#45;greeting.js&#45;&gt;client/src/init/state.js</title>
<path fill="none" stroke="#000000" stroke-width="2" stroke-opacity="0.200000" d="M257.64,-544.92C274.76,-536.79 297.52,-523.48 311.51,-505.32 338.79,-469.92 348.63,-416.27 351.95,-389.97"/>
<polygon fill="#000000" fill-opacity="0.200000" stroke="#000000" stroke-width="2" stroke-opacity="0.200000" points="354.05,-390.11 352.66,-383.9 349.88,-389.62 354.05,-390.11"/>
</g>
<!-- client/src/handlers/change&#45;greeting.js&#45;&gt;client/src/logic/reverse.js -->
<g id="edge11" class="edge">
<title>client/src/handlers/change&#45;greeting.js&#45;&gt;client/src/logic/reverse.js</title>
<path fill="none" stroke="#000000" stroke-width="2" stroke-opacity="0.200000" d="M261.32,-544.9C278.85,-537.17 300.53,-524.36 311.51,-505.32 321.63,-487.79 317.79,-343.49 319.51,-323.32 327.71,-227.42 344.73,-112.99 351.07,-71.93"/>
<polygon fill="#000000" fill-opacity="0.200000" stroke="#000000" stroke-width="2" stroke-opacity="0.200000" points="353.14,-72.24 351.99,-65.99 348.99,-71.6 353.14,-72.24"/>
</g>
<!-- client/src/init/index.js -->
<g id="node13" class="node">
<title>client/src/init/index.js</title>
<g id="a_node13"><a xlink:href="../client/src/init/index.js" xlink:title="index.js">
<path fill="#ffffcc" stroke="black" d="M375.31,-352.62C375.31,-352.62 333.71,-352.62 333.71,-352.62 330.61,-352.62 327.51,-349.52 327.51,-346.42 327.51,-346.42 327.51,-340.22 327.51,-340.22 327.51,-337.12 330.61,-334.02 333.71,-334.02 333.71,-334.02 375.31,-334.02 375.31,-334.02 378.41,-334.02 381.51,-337.12 381.51,-340.22 381.51,-340.22 381.51,-346.42 381.51,-346.42 381.51,-349.52 378.41,-352.62 375.31,-352.62"/>
<text text-anchor="middle" x="354.51" y="-340.62" font-family="Helvetica,sans-Serif" font-size="9.00">index.js</text>
</a>
</g>
</g>
<!-- client/src/init/router.js -->
<g id="node14" class="node">
<title>client/src/init/router.js</title>
<g id="a_node14"><a xlink:href="../client/src/init/router.js" xlink:title="router.js">
<path fill="#ffffcc" stroke="black" d="M445.81,-352.62C445.81,-352.62 404.21,-352.62 404.21,-352.62 401.11,-352.62 398.01,-349.52 398.01,-346.42 398.01,-346.42 398.01,-340.22 398.01,-340.22 398.01,-337.12 401.11,-334.02 404.21,-334.02 404.21,-334.02 445.81,-334.02 445.81,-334.02 448.91,-334.02 452.01,-337.12 452.01,-340.22 452.01,-340.22 452.01,-346.42 452.01,-346.42 452.01,-349.52 448.91,-352.62 445.81,-352.62"/>
<text text-anchor="middle" x="425.01" y="-340.62" font-family="Helvetica,sans-Serif" font-size="9.00">router.js</text>
</a>
</g>
</g>
<!-- client/src/init/index.js&#45;&gt;client/src/init/router.js -->
<g id="edge12" class="edge">
<title>client/src/init/index.js&#45;&gt;client/src/init/router.js</title>
<path fill="none" stroke="#000000" stroke-width="2" stroke-opacity="0.200000" d="M381.8,-343.32C385.1,-343.32 388.51,-343.32 391.89,-343.32"/>
<polygon fill="#000000" fill-opacity="0.200000" stroke="#000000" stroke-width="2" stroke-opacity="0.200000" points="391.91,-345.42 397.91,-343.32 391.91,-341.22 391.91,-345.42"/>
</g>
<!-- client/src/routes.js -->
<g id="node15" class="node">
<title>client/src/routes.js</title>
<g id="a_node15"><a xlink:href="../client/src/routes.js" xlink:title="routes.js">
<path fill="#ffffcc" stroke="black" d="M71.8,-234.62C71.8,-234.62 30.2,-234.62 30.2,-234.62 27.1,-234.62 24,-231.52 24,-228.42 24,-228.42 24,-222.22 24,-222.22 24,-219.12 27.1,-216.02 30.2,-216.02 30.2,-216.02 71.8,-216.02 71.8,-216.02 74.9,-216.02 78,-219.12 78,-222.22 78,-222.22 78,-228.42 78,-228.42 78,-231.52 74.9,-234.62 71.8,-234.62"/>
<text text-anchor="middle" x="51" y="-222.62" font-family="Helvetica,sans-Serif" font-size="9.00">routes.js</text>
</a>
</g>
</g>
<!-- client/src/init/router.js&#45;&gt;client/src/routes.js -->
<g id="edge13" class="edge">
<title>client/src/init/router.js&#45;&gt;client/src/routes.js</title>
<path fill="none" stroke="#000000" stroke-width="2" stroke-opacity="0.200000" d="M423.7,-333.84C421.96,-284.3 412.78,-56.71 390.01,-36.32 320.47,25.94 267.9,-4.92 180,-36.32 129.14,-54.49 116.03,-68.44 86,-113.32 65.64,-143.76 57.1,-186.84 53.82,-209.69"/>
<polygon fill="#000000" fill-opacity="0.200000" stroke="#000000" stroke-width="2" stroke-opacity="0.200000" points="51.71,-209.6 53,-215.83 55.88,-210.16 51.71,-209.6"/>
</g>
<!-- client/src/routes.js&#45;&gt;client/src/components/layout/page.js -->
<g id="edge15" class="edge">
<title>client/src/routes.js&#45;&gt;client/src/components/layout/page.js</title>
<path fill="none" stroke="#000000" stroke-width="2" stroke-opacity="0.200000" d="M54.88,-234.81C60.39,-252.71 73.03,-292.59 86,-325.32 99.7,-359.91 118.41,-399.36 128.62,-420.34"/>
<polygon fill="#000000" fill-opacity="0.200000" stroke="#000000" stroke-width="2" stroke-opacity="0.200000" points="126.74,-421.28 131.26,-425.75 130.51,-419.44 126.74,-421.28"/>
</g>
<!-- client/src/routes.js&#45;&gt;client/src/components/pages/home/index.js -->
<g id="edge16" class="edge">
<title>client/src/routes.js&#45;&gt;client/src/components/pages/home/index.js</title>
<path fill="none" stroke="#000000" stroke-width="2" stroke-opacity="0.200000" d="M65.12,-215.79C79.3,-205.49 101.99,-189.02 117.87,-177.49"/>
<polygon fill="#000000" fill-opacity="0.200000" stroke="#000000" stroke-width="2" stroke-opacity="0.200000" points="119.35,-179.01 122.97,-173.79 116.88,-175.61 119.35,-179.01"/>
</g>
<!-- client/src/routes.js&#45;&gt;client/src/components/pages/questions/index.js -->
<g id="edge17" class="edge">
<title>client/src/routes.js&#45;&gt;client/src/components/pages/questions/index.js</title>
<path fill="none" stroke="#000000" stroke-width="2" stroke-opacity="0.200000" d="M58.34,-234.72C64.56,-243.35 74.71,-256.02 86,-264.32 91.5,-268.37 97.86,-271.87 104.16,-274.83"/>
<polygon fill="#000000" fill-opacity="0.200000" stroke="#000000" stroke-width="2" stroke-opacity="0.200000" points="103.57,-276.87 109.9,-277.39 105.27,-273.03 103.57,-276.87"/>
</g>
<!-- client/src/routes.js&#45;&gt;client/src/components/pages/quiz/index.js -->
<g id="edge18" class="edge">
<title>client/src/routes.js&#45;&gt;client/src/components/pages/quiz/index.js</title>
<path fill="none" stroke="#000000" stroke-width="2" stroke-opacity="0.200000" d="M78.12,-225.32C86.18,-225.32 95.15,-225.32 103.58,-225.32"/>
<polygon fill="#000000" fill-opacity="0.200000" stroke="#000000" stroke-width="2" stroke-opacity="0.200000" points="103.9,-227.42 109.9,-225.32 103.9,-223.22 103.9,-227.42"/>
</g>
<!-- client/src/logic/reverse.spec.js -->
<g id="node16" class="node">
<title>client/src/logic/reverse.spec.js</title>
<g id="a_node16"><a xlink:href="../client/src/logic/reverse.spec.js" xlink:title="reverse.spec.js">
<path fill="#ffffcc" stroke="black" d="M265.56,-65.62C265.56,-65.62 201.95,-65.62 201.95,-65.62 198.85,-65.62 195.75,-62.52 195.75,-59.42 195.75,-59.42 195.75,-53.22 195.75,-53.22 195.75,-50.12 198.85,-47.02 201.95,-47.02 201.95,-47.02 265.56,-47.02 265.56,-47.02 268.66,-47.02 271.77,-50.12 271.77,-53.22 271.77,-53.22 271.77,-59.42 271.77,-59.42 271.77,-62.52 268.66,-65.62 265.56,-65.62"/>
<text text-anchor="middle" x="233.76" y="-53.62" font-family="Helvetica,sans-Serif" font-size="9.00">reverse.spec.js</text>
</a>
</g>
</g>
<!-- client/src/logic/reverse.spec.js&#45;&gt;client/src/logic/reverse.js -->
<g id="edge14" class="edge">
<title>client/src/logic/reverse.spec.js&#45;&gt;client/src/logic/reverse.js</title>
<path fill="none" stroke="#000000" stroke-width="2" stroke-opacity="0.200000" d="M272.01,-56.32C287.6,-56.32 305.57,-56.32 320.66,-56.32"/>
<polygon fill="#000000" fill-opacity="0.200000" stroke="#000000" stroke-width="2" stroke-opacity="0.200000" points="320.94,-58.42 326.94,-56.32 320.94,-54.22 320.94,-58.42"/>
</g>
</g>
</svg>
